<svg xmlns="http://www.w3.org/2000/svg" width="495.393" height="88.881" viewBox="53.5 355.119 495.393 88.881" enable-background="new 53.5 355.119 495.393 88.881"><path fill="#787473" d="M392.6 357.2c8.26-.83 16.52-.52 24.78-.83 1.08-.07 2.15.08 3.22.08 4.13 0 7.2 1.38 10.86 1.84s7.88-.1 11.4.9c7.95 2.22 16.98 2.15 26 2 8.88-.16 17 .68 23.88 3.28 2.52 1.15 6.2-.3 8.72.7 2.52 1-.54 2.5 1 3.6.07 1.13-.7 2.13-2.23 3.05-1.76.7-4.13.6-5.9 1.3-.75.23-1.52.38-2.36.46-1.22.06-2.45.2-3.52.6-.7.3-1.38.53-2.14.76-.9.16-1.75.16-2.67.08-1.3-.15-2.6-.38-3.82-.7-2.52-.45-5.27-2.6-7.4.47-1.54.7-3.23 1.08-5.22 1.24-4.13.76-7.5 4.28-12.7 1.3-3.9-2.07-7.64.07-9.63.22 1.83-.3 5.27-1.75 9.18-.53 2.06 3.52 7.1 6.35 7.03 10.33-.15.53-.38 1-.76 1.45-1 1.16-2.9 2.23-3.2 3.45-1.08 3.9-4.9 4.52-10.95 2.83 1-1.83-1.7-1.76-3.98-2.3-3.9-.9-8.26-.3-12.16-.9-.9-.16-1.68-.4-2.2-.77-.24-.38-.1-1-.93-1.07-1.38-.15.23-.22-.15.46-1 .15-1.84.07-2.6-.24-2.53-2.52 2.44-2.6 4.8-3.44.86-.23 1.7-.6 2.6-.23-1.97-.7-3.05.68-4.73.68-5.06.7-9.95 1.3-13.47-1.22-2.6-1.84-2.22-3.68 1.07-5.36 2.75-1.38 5.97-2.52 8.34 0 .15.3-.6.6-.6.77 0 .38.52.38.83-.16 1.76-.9 1-1.82-.54-2.2-7.8-2.22-8.1-5.13-2.37-9.2-7.65 3.92-14.15 1.77-20.66.32-8.5-5.9-8.1-7.57 3.9-9.87-6.26.3-11.3.38-10.7-3.14z"/><path fill="#777371" d="M497.8 406.48c5.65.15 11.23.46 16.6 1.3 1.2 1.23-.93 1.68-2.3 2.3-1.77.53-2.3 1.3-2.23 2.22.3 4.66.3 4.66-8.8 6.04-.3.07-.68.07-1 .07-.45.1-.98.1-1.44.17-6.28 2.14-14.15 1.45-20.35 3.6-1 0-1.53-.7-2.45-.47-.7.23 1 .62.15 1.08-.84.68-2.52 1.45-3.44 1.14-9.03-3.13-19.97-3.75-30.37-5.05-1-.15-1.6-.6-2.22-1.07-2.6-2.52-3.2-5.28-2.68-8.18.3-1.76 1-3.45 4.67-3.9 6.96-.92 6.12-3.37 6.12-5.74 2.07-1.9 5.74-2.83 9.1-3.9 5.67-1.84 5.67-1.76 8.88 1.76.23.3 2.98-.62 4.6-.16 1.2.54 1.6 1.23 1.6 2 0 3.74-3.22 8.56 9.94 8.1 1.9-.08 3.67 1.38 2.52 1.76-5.12 1.53 3.14 6.43-7.72 6.2 5.12.15 7.95-1.92 11.93-2.68.93-.23 1.92-.38 3-.38 2.82.38 5.12-.4 8.1-1.07-3.44.16-7.1 1.7-8.4-.68-.93-1.7-1.47-3.52 1.13-5.05 1.7-1.07 3.3.3 5.06.6z"/><path fill="#585352" d="M347.77 357.14c.46-.23 1-.23 1.45-.08.7.3 1.38.6 2.22.77.6.38.84.76.77 1.3-.6 2.6-5.27 3.06-8.7 4.13-.55.3-1.1.68-1.54 1.07-1.23 1.76-.54 3.6-1.53 5.35-.92 1.76-1.92 3.6-1.38 5.36 1.15 4.2-2.9 5.05-9.87 4.13-.76.23-1.45.53-2.06.92-1.6 1.2-1 2.82-3.14 3.96-13.7 2.3-16.14 1.6-16.98-4.97-.08-.7.46-1.77-1-1.92-12.54-1.38-8.18-8.8-16.14-11.86-2.6-1-4.44-3.52-.92-5.35 3.37-1.76 6.58-.4 9.64.46 3.52.9 6.5.9 9.4-1 1.62-1.07 3.07-.15 4.3.46 3.74 1.06 1.68 5.35 9.33 4.12.85-.15 1.3-.84 1.92-1.3.3-.15-.3-.3-1.15 0-8.5 2.53-6.88-2.6-10.94-3.44-.76-1.15-.84-2.22 1.7-2.98 5.57.38 11.4-2.53 16.9-.4 5.35 1.62 12 .24 17.74 1.24z"/><path fill="#7C7A77" d="M103.43 440.3c-4.44.3-8.88.45-12.93-.47-3.3-2.37-6.66-4.66-13.7-4.2-.84-.3-1.52-.6-2.14-1-.53-.46-.84-.92-1-1.37 0-.77.32-1.46 1.3-2.07 9.27-5.44 11.5-12.17 15.62-18.52-.23-.46-.4-.92-.54-1.3-.3-1.3-.77-2.68-1.53-3.98-.37-2.45-2.9-4.9.77-7.35 2.6-1.3 5.6-2.44 8.65-3.44.08-.14.6-.14.46-.37-.46.23-1.07.38-1.84.46-7.88-.93-5.43-4.22-5.5-6.9 1.52-1.07-.54-.92-1.54-1.22-2.37-1.84-4.13-3.75-2.3-6.12 7.5-2.14 5.13 1.9 8.2 3.9-.16-.23.53-1.22-.85-1-.53.08-.6-.07-.76-.3-.7-1-.1-1.76 1.75-2.3 7.27-.22 9.1 2.6 8.87 5.05-.6 5.45 5.28 7.43 14.16 8.35 1.45 1.46-.92 2.3-2.68 3.22-5.13 2.6-5.6 5.35-2 8.18-1.22 2.45-2.9 4.9-3.2 7.42-.3.54-.85.92-1.53 1.38-10.64.08-6.43 4.67-8.73 7.1-1.6 1.77.23 4-2.3 6.13-1.3 1.07 2.84 2.3 5.6 2.83 2.9.17 5.88.17 8.1 1.32.6.38 1 .84 1.07 1.37-.22 3.05-2.97 4.96-9.47 5.2z"/><path fill="#66615E" d="M368.96 357.2c7.27-.37 14.6-1.06 21.65-.06 1.84 1.83 2.46 3.44-3.28 3.9-3.14.23-6.43.08-11.55 1.22 14.9 1.15 9.94 7.04 12.08 11.25 0 .85-.76 1.84.4 2.6 2.82 1.92 11.7 2.3 5.8 6.36-3.37 2.3-2.06 5.66-8.57 7.27-6.88 1.76-1.68 3.9-.6 5.8.3 5.52-.32 5.83-10.57 4.9-3.43-1-3.96-2.9-5.34-4.58-.77-.92-1.53-1.84-2-2.83 1.23-2.07.93-3.67-2.13-5.43-4.13-2.4-4.2-5.06 2.98-6.82.32-.08.93 0 1-.08.77-1-1.07-.23-1.45-.46-1.45.08-2.68-.08-3.9-.46-1.9-1.07-1.45-2.6-2.68-3.75-.6-.76-1.3-1.6-2.3-2.3-1.06-.68-2.6-1.22-2.9-2.13.23-2.15.23-4.13-2.83-5.9-4.44-2.52-1.45-4.5 4.06-4.9 4.9-.3 7.42-1.9 10.7-3.13.54-.23 1-.3 1.46-.46z"/><path fill="#736E6C" d="M542.92 374.27c1.23.3 2.6.54 3.67 1 3.2 1.38 3.05 2.06-.47 3.2-2.44.85-5.04 1.54-7.57 2.38-2.06.7-3.3 1.53-2 2.76 1.62 1.6-.45 2.3-3.05 2.92-2.97.68-7.33.84-8.17 2.52-1.3 2.52-4.82 2.52-8.27 2.83-4.28.38-8.56.77-12 2.45-1.3.84-2.38 1.76-4.75 1.76-7.26-.3-14-1.3-19.42-3.67-.7-.45.46-1-.23-1.37-.15-.08-.23.7-1 .92-6.42 2.75-11.47 3.36-13.15-1.53.07-.54.3-1 .7-1.46 5.42-4.6 16.5-6.27 27.3-3.67-1.46-2.15-3.06-4.37 1.6-5.52 3.3-.76 4.67 1 7.42 3.44-2.22-5.58 4.6-6.8 10.48-8.56 7.12-2.07 11.55-1 16.83 1.45 2.53 1.23 7.96-1.06 12.1-1.83z"/><path fill="#767270" d="M356.87 441.44c-10.1.15-20.35 1.15-30.37.38 3.22-2.06 7.73-1.9 12-2.22 2.84-.07 5.67-.23 8.5-.3 13.85-1.15 22.73-5.2 25.63-11.7.08-.4.23-.85.23-1.23-.54-.84-2.14-1.23-3.14-1.84-1.6-2.37 4.44-3.06 5.28-5.28-7.57-.6-13.6-1.98-11.1-6.73-.22-1.22-1.06-2.37-.22-3.67.54-.46 1.3-.76 2.22-1 7.42-.84 14 1.23 21.27.92 5.8-.38 7.72 2.68 10.63 3.9 6.35 2.68 12.62 3.53 20.43 3.6 2.14 0 3.5 1 3.44 2.3-6.05 2.6-12.62 3.67-19.97 2.22-3.98-.78-7.73-.1-12.4 1.06 5.13-.08 9.88-.16 10.64 2.37.7 2.22-3.82 2.83-6.58 3.82 4.67.3 8.88.92 14.23-.6 6.42-1.85 10.4 1.06 9.63 6.5-.7.38-1.6.68-2.6.83-7.5-.9-15.45.3-22.95-.53-5.13-.54-9.8 0-12.93 2.6-.92.15-1.76.15-2.68.15-1.07-.07-2.14-.07-2.2.77-.17.38-.4.76-.78 1.15-1.54 1.14-3.76 1.83-6.28 2.3-.77.22-1.6.3-2.45.3-1.38-.6-2.68-.16-3.9.3-1.3-.07-2.45-.23-3.6-.38z"/><path fill="#6D6865" d="M542.92 374.27c-.53 2.6-.53 2.68-5.2 2.45-1.38-.08-2.98-.3-3.83.46-.85.7.07 2.14-2.53 2-1.15-.1-1.53-1.62-2.75-1.92-2-.54-1.15-2.15-3.68-2.3-3.36-.23-6.73-1.22-9.8.84-1.3.84-2.9 1.53-5.27 1.84-3.82.46-5.12 1.3-4.97 2.75.08.68.92 1.3 1 2.06s-.92 1.38-2.3 1.76c-2.22.53-1.9-.38-2.45-1-1.07-1.07-2.68-2-4.05-2.98-2.6 1.15-3 2.22-1.53 3.44.92.77 2 1.46 2.75 2.22.23.23.08.7-.3.92-.46.23-1.3.3-2 .38-1.9.08-3.2-.3-4.58-.92-4.52-2-4.6-1.9-9.8-.38-.9.3-1.83.7-2.83.77-4.8.6-8.4 1.6-10.92 3.06-2.15.3-3.98 1.07-6.05 1.3-3.82.45-4.5-.3-2.68-2 0-.37 0-.68 0-1.06 2.15-1.92 3.75-4.67 7.88-5.13 6.2-.7 2.68-2.9 4.36-4.2 3.5-1.7 7.1-3.3 10.93-4.83.77.32 1.46.62 2.22 1 .77.3 1.46.3 2.14-.07 1.83-.84 4.5-.6 6.42-1.38 0-.38 0-.68 0-1.07 1-.38 2.3-.38 2.6.08 2.22 3.52 2.6-.23 3.9-.38-.15-1.15 1-2.15 2.15-3.14.53-.6 1.3-.7 2.37-.46 1.76-.08 3.6-.23 5.27-.23 1 0 2.62.23 2.77.54 2.52 4.58 10.7 3.5 17.3 3.8 4.8 0 9.63.17 13.45 1.77z"/><path fill="#424041" d="M272.65 440.98c-9.34 1.3-18.67.77-27.93.92-21.2.23-42.3 0-63.4 0-2.16 0-4.37.08-6.2-.54-3-1.53-7.66.62-11.56-1.22 4.97-1.3 5.66-7.96 14.84-2.52.23.15 1.45-1.07 2.68-1.46 4.9-.6 6.42-2.83 9.02-4.6 2.3-1.52 5.13-2.2 7.5-.14 7.2 6.43 7.42 6.5 23.03 3.75 9.64 0 19.05.6 28 2.14.9.1 1.76.24 2.6.4 2.9 1 4.6-1 7.2-1 2.28 0 4.58 0 6.87-.23 4.9.15 3.98-2.22 5.9-3.3 7.95-.22 14.9-2.5 22.56-3.43 5.82.76 5.2 2.75 2.9 4.97-5.96 1.85-12.46 3.3-16.3 6.5-2.67-.06-5.34.47-7.7-.22z"/><path fill="#7E7A79" d="M500.62 395.54c1.45-.46 2.9-.84 4.43-1.3.23 1.22 1.3 1.9 3.9 1.84 5.28-.23 10.64-.4 15.92-.62.9 0 2.3 0 1.98.77-.07.3-.68.76-1.22.84-4.6.6-7.5 2.98-12.4 3.3-.68.07-1.68.14-1.9.37-2.76 2.76-9.2 2.76-12.93 4.75-.46.2-.46.67-.7.98-4.28-.15-4.66-.15-4.2 1.3.38 1.22-2.06 2.45-.08 3.6 2.53 0 4.06-1.3 6.9-1.15 2.05.15 3.28.3 3.66 1.3.38.92-.76 1.22-2.37 1.38-3.66.24-7.33 1.92-11.08.54-3.37 2.45-9.72 2.3-13.62 4.52-1.22-.77-2.14-1.23-2.98-1.76-.84-.54-2.45-1-1.38-1.76 1.76-1.23 2.83-.16 4.13.3.3.08.7.23.92.23.98-.15 2.13-.23 2.9-.53.9-.4.84-1.07.07-1.38-1.22-.54-2.75-.92-4.66-1.6 2.84-.54 4.52-.85 6.13-1.23.38-.08.53-.6.6-.92 0-.07-.45-.3-.68-.3-1.38.16-2.68.4-4.05.54-5.13.46-9.34-1.15-8.95-3.67.22-1.3 0-2.45-.4-3.67-.22-.77.62-1.38 1.85-1.84 1.6-1.45 4.13-2.52 7.1-1.76 9.12 2.22 15.93-.84 23.12-3.06z"/><path fill="#797674" d="M96.62 383.15c-1.38.46-1.76 1.07-1.53 1.83.07.3 0 .85-.32.92-1.22.3-1.98-.15-2.14-.7-.46-1.44-.76-2.82-4.66-2.74-5.28.46-9.1-.6-11.02-2.83-2.45-2.83-5.66-5.5-7.04-8.65-2.9-6.65 1.46-9.7 15.15-10.55 2.06-.16 4.28.07 6.12-.77 10.85-2.6 21.87-2.6 32.96-1.76-2.3 1.7-5.74 1.7-9.03 2-11.78 1.06-16.6 4.43-15.3 9.78 1 4.2-6.73 4.13-13.23 5.36 9.18 1.15 11.1 4.13 10.02 8.1z"/><path fill="#4A4747" d="M219.63 356.68c.54-.23 1.07-.23 1.53 0 6.73 1.15 13.85-.84 20.66.07 5.35-.15 10.78-.6 16.06-.45 9.26.3 18.6-.08 27.92-.3 7.2.98 15.07-1.62 22.04.37 1 3.6-5.13 3.37-8.27 3.14-6.73-.53-12.62.62-18.74 1.62-.6.15-1.45.22-1.9.38-5.6 2.3-11.03 2.9-16.15.23-3.37-.3-7.27.9-10.25-.46-.4-.3-.77-.54-1.23-.84-.15.6 1.53.76 1.07 1.37-.53 1.3-2.22 3.06-4.5 2.6-5.75-1.14-11.1 1.23-16.54.46-.9-.07-1.83-.23-2.67-.38-1.38-1.3-3.67-1.6-6.5-1.3-2.76.08-4.98-.54-7.12-1.22-.7-.16-1.45-.3-2.22-.38-.76-.08-1.53-.16-2.3-.23-.76-.08-1.45-.23-2.13-.4-.63-.14-.86-.67-1.47-.67-1.45 0 .3-.3-.15.38-.3.15-.6.23-1 .38-.76.08-1.53.08-2.3.08-1.14-.16-2.3-.3-3.36-.54-.84-.08-1.6-.23-2.44-.3-1.84-.16-3.68-.23-5.36-.7-3.6-2.44 1.22-1.83 3.3-2.2 7.95-.17 15.98-1.24 24-.7z"/><path fill="#6A6563" d="M111.92 434.4c-2.76-.6-5.6-1-8.72-.68-1.3-.46-1.53-1.15-1.38-2 .23-.53.7-1 1.15-1.45.6-1.45 6.2-1.07 4.74-3.6-1.37-2.3.16-4.8 5.06-5.96 5.66-1.3 11.17-1.06 15.07 1.54.77.6-.38 0 .6.38 7.6 3.22 8.35 7.2 4 11.78-1.08 2.3 8.7 3.68 1.44 6.5-5.2.46-10.32.62-15.3-.22-4.74-1.46-10.4.68-15.22-.46 4.6-1.3 7.34-3.3 8.57-5.82z"/><path fill="#666260" d="M112.9 358.6c3.76-.24 7.5-.54 11.26-.77 6.58-.16 13.23-1 19.58.15-1.22 1.07-3.3 1.38-5.5 1.6-.54.62-3.06-1.45-3.6 1.23-.53 2.84-3.3 5.98-3.98 9.1.77 1.08 2.6 1.93 3.22 3 .07.53-.16 1-.7 1.45-7.1 2.37-6.72 5.58-4.66 8.87 1.45 2.38 3.44 4.67-3.06 6.28-17.75-2.76-19.05-4.44-11.1-14 1.84-2.14 2.7-3.52-2.52-5.28-8.1-2.76-6.73-7.73 1.07-11.63z"/><path fill="#878382" d="M91.1 359.6c-2.05 1.44-5.1 1.3-7.94 1.36-4.82.16-7.88.92-9.72 3.6-1.22 1.68-4.05 3.06-.7 4.67-2.28 3.06 3.84 4.6 4.37 7.2.32 1.36 1.85 2.6 2.92 3.9 1.07 1.36 5.05.06 6.2 1.52.22.3 1.07.38 1.68.6 1.6 2.07 1.3 4.6 4.6 6.28.06 1.38 1.2 2.6.75 4.13-.68 2.15-.07 2.22 6.12 3.14-.15.92-.68 1.76-2.44 2.3-2.15.76-4.06 1.6-6.12 2.37-5.35-2.53-2.98-6.35-5.5-9.34-2.76-.9-5.6-1.83-8.34-2.75-4.36-2.68-8.95-5.28-7.8-9.26.38-1.22-1.38-1.9-3.52-2.22-6.05-1.68-6.28-1.98-2.6-4.43 1.22-.77 1.9-1.46 1.37-2.45-.83-1.53-1.44-3.06-2.05-4.5 5.2-4 12.3-5.83 21.2-5.83 2.6 0 5.1-.16 7.56-.3z"/><path fill="#837F7E" d="M372.48 438.38c0-.38 0-.7 0-1.07.6-.45.76-1.06 2.06-1.2.7 0 1.46-.1 2.15-.1 13-.37 26.23 4.14 38.92-1.83 8.73-1.6 17.68-4.28 24.56.84.54.4 2.75.17 2.83 0 3.07-5.5 13.32-3.2 19.6-5.1 1.9-.62 3.5-1.3 5.04-2.15 1.23-.54 2.53-.92 4.2-.84 2.38.46 3.68 1.6 5.75 2.22 7.03 2 .75 2.38-1.77 3.22-6.5 1-13.46 1.22-19.2 3.52-1.07.46-2.68.6-4.06.68-7.5.54-15 1-22.5 1.46-1.75.07-3.97-.08-5.27.38-5.66 2-11.78 1.53-17.74 1.76-12.93.54-25.78 1-38.7 1.45-3.9.15-7.9.68-11.56-.24 1.6-.15 3.2-.3 4.8-.53.78-.23 1.54-.3 2.23-.08.7 0 1.38 0 2.07-.07 2.22-.7 5.97-.4 6.58-2.3z"/><path fill="#625D5D" d="M340.04 440.83c-4.5.3-9.02.6-13.54.92-13 .38-26 .46-38.78-.4.3-.2.53-.37.84-.6 4.05-.76 6.42-2.98 10.86-3.44 3.6-.37 7.2-.45 10.8-.6 2.28-.08 4.27-.38 4.35-1.84 0-3.06 3.9-2.3 8.03-3.13 7.96-1.6 15.6.38 22.87-1.6 4.9 3.43 3.6 6.1-5.43 10.7z"/><path fill="#6F6967" d="M386.86 373.8c-.6-.44-1-.9-1.76-1.3-3.06-1.36-3.37-2.9-.54-4.73.62-.38.85-1 1.3-1.53-1.98-1.45-5.73-1.07-8.33-1.83-2.22-.68-3.83-1.37-4.13-2.75-.4-1.76 1.98-2.83 5.12-2.06 1.6.37 2.68.98 4.5.22 1.24-.54 2.46-.46 3.92-.3 3.13.3 3.13.22 3.6-1.85 0-.15 0-.38.07-.53.7-.15 1.4-.15 2 .07 1.14.63 2.6 1.16 3.3 1.93 1.36 1.68 2.36.53 3.5-.16.77-.45 2.53-.84 2.53-.45-.15 1.68 4.74 1.37 4.5 3.06-12.6.38-12.76.45-7.18 6.27.6.6.4 1.38.54 2.14 1.37.45 3.2.9 1.9 1.98-2 1.6-5.05.92-7.73 1-1-.08-2.2 0-2.44-.77-.46.4-.23.62.76.62 1.44.3 3.9-.07 3.9 1.23-3.98 2.82-7.12 2.98-9.34-.24z"/><path fill="#A09B9A" d="M85.3 391.4c.84.24 2.22.4 2.44.78 1.46 2.83 3.75 5.5 3.06 8.56-.45.3-1.37.6-1.3.84.4 1.92 1 3.75 1.53 5.6-1.14.68-1.53 1.6-2.67 2.36-.62.38-1.3.7-2.07.92-2 .6-4.06 1.15-6.44 1.15-.9-.07-1.6-.3-2.06-.68.7-.77 2.3-1.53-.46-2-.7-.07-2.07-.68-1.07-.68 6.65-.08 3.44-2.83 5.28-4.13.23-.14.3-.3.46-.45-2.75-1.45-5.96-2.68-8.87-4.13l-.07.08c-2.07-3.68 4.6-4.44 8.64-6.12 1.07-.85 3.37-1 3.6-2.07z"/><path fill="#504C4D" d="M181.46 436.55c-.7.6-1.3 1.3-2 1.9-.9.93-2.13.93-3.2.3-.62-.37-1-.9-1.3-1.36-.3-.55-.62-1.08-1.84-1.08-1.38 0-1.3.6-1.45 1.14-.3 1.6-3.6 1.53-5.9 2.68 3.06.7 7.42-.6 9.18 1.22-8.72.4-17.44.77-25.93 0-3.37-1.68-5.12-3.28 1.53-4.43 2.68-.46-.23-1.23.7-1.7 1.9-2.66 4.73-4.27 10-2.05 2.07.84 4 1.3 6.6.7 6.95-1.62 10.85-.1 13.6 2.67z"/><path fill="#A09C9A" d="M67.93 430.04c-4.6-.23-4.74-2.3-3.67-3.6 1.6-1.98 1.3-4.28 4.5-6.1 1.77-1 2.4-2.23 1.77-3.53-1.68-3.9-1.14-4.28 6.28-5.8.3-.08.7-.08 1.08-.08.3.07.53.23.84.3 5.8 1.76 2.83 4.67 2.83 7.2 0 3.44-7.57 6.04-5.05 9.94.6 1-4.2 1.6-7.1 1.68-.47 0-.93 0-1.47 0z"/><path fill="#625D5C" d="M153.23 435.7c.3.7.6 1.3.76 2 .15.68-.62.83-1.77.68-4.36-.46-4.36-.46-3.67 1.3.23.54.38 1 .54 1.53-5.2.4-10.33.62-15.23-.3 1.7-1.76.92-3.13-1.98-4.13-2-.7-.93-1.45-.47-2.3.76-.3 1.6-.45 2.52-.53 3.06.3 3.14-.6 2.98-1.76.16-.53.54-1 1-1.45 6.5-3.6 11.47-3.2 14.23.76.92 1.53-1.38 3.13 1.07 4.2z"/><path fill="#8D8987" d="M77.27 434.94c4.13 1.45 3.9-1.3 6.65-1.84 2.22 2.14 7.27 3.6 6.5 6.66-6.27.68-11.86-.7-17.82-.92-1.9-.08-3.75-.84-5.43-1.45-1.53-.55-2.3-1.4-.77-2.3 2.75-1.7 2.14-3.38 1.45-5.14l.92-.15c3.45-1.14 4.44-.14 4.44 1.3-.07 1.08-.14 2.08 1.77 2.77.77.46 1.6.76 2.3 1.07z"/><path fill="#A9A6A3" d="M65.7 377.1c1.93-.07 3.76 0 4.22 1 1.53 2.98 2.75 6.04 6.73 8.5.7.45.23 1.37.3 2.05-1.3-.15-2.82-.22-3.97-.53-2.83-.84-8.1.08-8.03-2.9.07-1.84-2.07-3.6 2-5.36 2.05-.92-.47-1.9-1.24-2.76z"/><path fill="#B1AEAC" d="M81.78 393.4c-3.37 1.9-7.04 3.67-8.65 6.12-1.3 0-2.52 0-3.82 0-1.45-.46-3.74-.6-2.36-1.9 3.98-2.46 8.64-4.07 14.84-4.22z"/><path fill="#EEEDED" d="M475.9 432.34c.47-.3.92-.54 1.38-.84 1-.46 2.38-.92.23-1.46-2.5-.53-5.34-.84-5.1-2.67 1.82-1.53 4.35-1.46 7.1-1.08.38.15.77.38 1.07.53-.7.77-2 1.6.3 2.14 1.54.38 3.22.84 2.38 1.84-.7.93-2.53 1.23-4.28 1.4-.92.14-2 .14-3.06.14z"/><path fill="#534E4D" d="M219.63 356.68c-8.87.46-17.75.92-26.62 1.38-.76-.23-.98-.46-.76-.7s.46-.38.7-.38c9.02-.6 17.9-1.14 26.7-.3z"/><path fill="#4A4747" d="M193 356.9c0 .4 0 .7.1 1.08-1.77 1.68 1.3.77 2.2 1 .3.22.54.38.85.6-.3.47-.85.93-1.76 1.15-4.83 1-7.9-1.07-12.1-1.3-.92-.15-1.6-.45-2.22-.84 1.7-1.38 4.67-1.15 7.12-1.6 2-.4 3.9-.32 5.8-.1z"/><path fill="#5F5A58" d="M329.8 356.83c4.27-.15 8.56-.23 12.84-.38 1.7.23 3.45.46 5.13.6-5.28.4-10.56.93-15.84 1.24-1.83.14-2-.78-2.14-1.47z"/><path fill="#4A4747" d="M241.82 356.68c-4.98.23-9.95.53-14.92.76-2.22.16-4.3.08-5.74-.84 6.96-.23 13.85-.7 20.66.08z"/><path fill="#B1AEAC" d="M73.2 399.52c4.75.38 7.8 1.76 8.88 4.13-4.5-.6-7.95-1.68-8.87-4.13z"/><path fill="#66615E" d="M351.36 357.06c5.9-.3 11.86-.84 17.6.16l-.54.3c-5.66 1.6-11.32 2.6-16.98.6-.46-.22-.7-.45-.53-.67.16-.24.3-.4.46-.4z"/><path fill="#7C7A77" d="M103.43 440.3c3.6-.16 7.1-.4 10.7-.54 1.92-.08 3.45.23 4.52 1-5.12 0-10.4.83-15.22-.47z"/><path fill="#EEEDED" d="M493.43 422.1c-1.23.9-2.68 1.67-4.9 2.13-2 .38-3.9 1-5.8 1.53-.4-.15-.7-.3-1.1-.54-.6-2.9 4.3-3.06 7.82-3.82 1-.08 2 0 2.9.15.4.15.77.3 1.07.54z"/><path fill="#625D5D" d="M272.65 440.98c2.9-.15 5.8-.38 8.8-.53 2.75-.77 5.5-1.46 6.88.6l-.46.4c-3.9.14-7.8.3-11.7.37-1.7.08-2.9-.15-3.52-.84z"/><path fill="#EEEDED" d="M499.55 419.4c-.3 3.22-.3 3.22-6.12 2.6-.23-.14-.46-.22-.77-.37-.08-.23-.15-.4-.23-.6.23-.24.38-.4.6-.63.93-.46 2-.84 3.23-1.14.38-.08.84-.16 1.22-.23.76-.08 1.53.07 2.06.38z"/><path fill="#9A9897" d="M504.06 368.15c-.77.16-1.6.3-2.37.46-2.84-.98.3-2.36-.16-3.43 2.52-.23 3.97 0 2.83 1.53-.4.46-.24 1-.3 1.45z"/><path fill="#A9A5A7" d="M512.1 410.15c.76-.76 1.52-1.53 2.3-2.3.98 0 1.97-.15 2.97-.07.6 0 1.07.3 1.6.46-.45.23-.76.53-1.3.76-1.75.46-3.36 1.23-5.58 1.15z"/><path fill="#9A9897" d="M501.46 365.1c-3.14.22-6.43.84-8.72-.7 3.06-.07 6.27-.45 8.72.7z"/><path fill="#EDECEB" d="M67 397.53c.78.6 1.54 1.3 2.4 1.9-1 0-2.08.1-3.07-.06-1.23-.16-2.76-.46-2-1.3.3-.23 1.77-.3 2.68-.54z"/><path fill="#E2E0DF" d="M69.7 391.5c-.32.3-.55.6-.93.83-.6.3-1.37.23-1.53-.16-.07-.22.3-.68.77-.84s1.16.08 1.7.16z"/><path fill="#5F5A58" d="M351.36 357.06c0 .38 0 .77.08 1.07-.77-.38-1.45-.68-2.22-1.07.7 0 1.38 0 2.14 0z"/><path fill="#777371" d="M499.55 419.4c-.7 0-1.46.1-2.15.1-.53-.78-.15-1.32 1.76-1.24l.84.23c-.15.3-.3.6-.45.9z"/><path fill="#EEEDED" d="M482.7 425.76c-.67.38-1.36.76-2.05 1.15l-.7-.3c-.06-.7.62-1.07 2.08-1.15l.7.3z"/><path fill="#7E7978" d="M421.44 418.8c-1.23-1.15-3.06-1.9-5.9-1.84-1.75.08-3.6.15-5.35.23-7.2.45-8.04.22-10.8-3.15-.22-.3-.6-.6-1.14-1.07-2.52.54-5.2 1.07-7.65 1.53-2.5-1.06-.22-2.13-.14-3.12 0-1.46-1.76-1.76-4.13-1.76-.62-1.92 1.22-3.83.6-5.67 5.44-2.2 7.9-6.12 16.15-6.73 4.2-.3 6.43 1.07 9.56 1.76.77-2.06 2.37-3.82 5.66-5.28 1.46-.6 3.22-.9 4.9-1.22.46-.08.84-.15 1.3-.23.84-.15 1.68-.23 2.52-.23.84-.3.46.84 1.53.3-.38-.3-.23-.68.3-.9 2.15-.4 4.22-1.77 6.5-.4.32.16 1.47.24 1.7.08 3.74-1.9 5.35-1.3 6.12.92.22.6 1.52.46 2.37.08 1-.54 1.76-1.22 2.98-.3.76.53 1.3 1.14-.08 1.83-.76.38-1.37.84-2.06 1.22 1.6 1.7 4.05 3.14 2.45 5.28 1 1.46 2.06 2.9 3.06 4.44-.93 1.07-3.53.23-4.45.92-1.9 1.36-5.05 1.2-7.35 2.13 1.38 2-2.14 4.13-.3 6.12 1.15 1.3 1 2.75 1.07 4.13-.38.15-.77.3-1.23.38-.45 0-.9 0-1.45 0-.47-.07-.93-.15-1.4-.15-4.88-.75-9.55.4-14.2 1.08-.32-.15-.78-.3-1.16-.38z"/><path fill="#736F6D" d="M395.5 373.43c-1.76.08-3.44-.07-4.36-.84 2-.1 4.06-.16 6.05-.32 3.2-.22 3.2-.22 2.5-2.3 1.7-.3 3.45-.6 5.14-.9 1.68-.24 2.98.07 2.83.9-.15 1.16.53 1.7 2.83 1.62 2.22-.08 3.2-.54 2.9-1.76-.22-.84 1.15-1.6 2.53-1.23 2.83.7 5.43-.6 8.2-.14-.1 1.68-.93 3.06-3.84 4.28-3.15 1.38-3 2.83-.4 4.13 1.54.7 3.3 1.23 5.13 1.76 2.07.62 2.3 1.6 2.15 2.76-.16 1.2-.3 1.36-3.3.98-.68-.07-1.3-.23-1.98-.38-1.7-1.76-3-2.07-4.9-1-1.22.7-2.37 1.46-3.14 2.22-.38.4-.38 1.3.23 1.53 2.75 1.07 4.28 3.37 9.56 1.92 1.22-.3 3.28.3 4.97.46-.92.45-1.84.9-2.68 1.45-1.53.84-.92 1.45.7 1.9 1.2.7 1.44 1.4.06 2.15-4.65.85-12.6.7-12.38-.45.92-4.06-6.27-3.68-9.18-5.44-2.3-.76.77-2.3-1.22-3.13-.7-.3-1.38-.53-2-.83-7.26-2.22-7.94-5.5-6.42-9.34z"/><path fill="#736E6C" d="M471.62 378.48c0 1.53 2.07 2.6 2.9 3.9.4.6-.53 1.23-1.44.84-2-.76-3.37-1-5.36.16-2.75 1.53-5.05 3.3-8.64 4.36-.16-2.37.38-4.82-6.12-5.2-2.22-.16-1.3-1.23-.16-1.53 3.9-1.14 1.3-2.52 1.38-3.82 2.07.15 4.2.3 6.43.46 1.3-.38.54-.76.24-1.22-.92-1.3-.46-1.7 1.6-1.76 1.9-.08 3.6 0 4.67.84 1.84.6 3 1.53 4.06 2.45.23.15.4.3.46.53zM448.82 400.13c-1-1.3-2.06-2.6-3.06-3.82-.45-.53-.3-1 .7-1.45 2.44-.15 4.9-.23 7.57.3 0-2.67.15-4.96 5.12-6.34.38.7.15 2 2.68.7 2.22-1.23 4.13-1.07 6.04 0-2.37 2 .4 3.3 1.9 4.74 1.4 1.22 2.85 2.37.63 3.82-2.37 0-3.68 1.08-5.6 1.53-1.67-1 .16-2 .4-3.07.07-.3-.3-.68-.77-.84-.46-.16-1.45-.24-1.9-.08-4.6 1.45-9.1 2.98-13.7 4.5zM482.26 373.66c-1.53 2.76-4.67 4.6-10.64 4.82-2.6-1.3-1-2.83-.23-4.36 2.36-.92-1.84-1.3-.4-2 1.23-.52 2.92-1.2 4.68-.68 2.3.7 4.43 1.46 6.58 2.22z"/><path fill="#736F6D" d="M429.85 376.34c-2.22.54-4.2.54-6.04-.15-.53-.24-1.06-.55-1.14-.78 0-.3.6-.76 1.07-.84 2.45-.3 4.9-.54 7.35-.6 2.68-.1 5.05.9 4.36 1.6-1.07 1.07-2.83.9-4.6.76-.3-.08-.68 0-1 0z"/><path fill="#736E6C" d="M454.26 377.1c-3.52.08-6.96.4-10.25 1.3-1.3.4-2.75.3-3.82-.22-.46-.23-.76-.62-.76-.92 0-.23.84-.7 1-.7 4.43.93 7.95-.83 11.85-1.44 2-.23 2.45.23 2 1.98zM499.55 371.75c.38.6 1.53 1.3.53 1.9-1.3.85-2.83 1.54-2.68 3.84-2.9-2.38-.84-4.6-4.28-5.44 2-1.84 4.2-.46 6.43-.3z"/><path fill="#6D6865" d="M471.47 374.12c2.37 1.3.08 2.9.23 4.36-4.06-.46-4.06-.46-4.5-3.06 1.44-.38 2.82-.84 4.27-1.3z"/><path fill="#736E6C" d="M493.12 373.13c-2.3 1.98-2.3 1.98-6.43 1.37 0-.38 0-.7 0-1.07.07-.7 0-1.45 1.6-1.76 1.68-.38 2.3.46 3.2.84.47.32 1.08.47 1.62.63z"/><path fill="#7E7978" d="M428.63 386.97c1.3-1.14 3.44-1.3 5.58-1.3 1.32 0 2.85-.3 3.46.54.07.16-.08.4-.23.47-.92.76-2.22.84-3.75.76-1.6-.15-3.3-.3-5.05-.46z"/><path fill="#736F6D" d="M421.97 382.92c-.3.6.4 1.53-1.83 1.45-.7 0-1.6-.6-1.76-1-.3-.83 1.15-1.14 2.52-1.37 2.22-.3.46.7 1.07.92z"/><path fill="#777371" d="M426.72 392.48c0-.7-.08-1.45-.08-2.14.7-.3 1.45-.3 2.14-.08 0 .38 0 .7.08 1.07 0 .4 0 .7.08 1.08-.77.08-1.46.08-2.22.08z"/><path fill="#736E6C" d="M486.7 374.5c-.7.77-1.38.84-2.15.08.7 0 1.38 0 2.14-.08z"/><path fill="#7E7978" d="M428.78 390.26c-.7 0-1.45.08-2.14.08.7-.77 1.45-.77 2.14-.08z"/><path fill="#6C6765" d="M482.03 425.45c-.7.4-1.38.77-2.07 1.15-2.52.23-5.05.53-7.57.76-1.4 0-2.23.4-2.84.92-1.6.85-3.6 1.15-5.74 1.23-2.06 0-3.9-.37-5.66-.9-3.83-.93-6.12-2.7-8.8-4.22-.6-.23-1.3-.53-1.9-.76-1-.4-2-.7-3.15-.92-1.3-.15-2.6 0-3.9.07-3.28.23-6.72.3-6.8-1.83-.07-1.46.7-3.22 5.13-3.14.76.3 1.45.3 2.14-.08 3.75 1.38 8.95-.22 12.1.54 3.35.92 6.18 1.9 10.3 1.9 3.7 0 6.13.85 8.28 2.38 2 1.46 3.2-.22 4.2-1.07 2.07-.15 4.82.08 5.6-1.07 1.3-1.83 2.6-1.37 5.04-.76 2.5.6 4.43-.6 6.4-1.46 2.16-.84 4.37-1.3 6.3 0-.63.4-1.16.85-1.77 1.23-1.15.7-3.14.62-4.3 1.23l-.14.08c-.47.47-1.08.77-1.92 1-1.38.85-3.3 1.23-5.2 1.53-2.07.4-3.37 1.15-3.75 2.22z"/><path fill="#787472" d="M470.4 398.06c-.15-1.83-2.68-3.13-3.83-4.66-1-1.3-1.45-2.68 1.3-3.83.4.7.54 1.38 1.15 2 1.9 1.83 2.37 1.9 5.97.6 1.9-.76 3.9-.84 5.95-1 1 1 2.45 1.77 4.67 1.85 5.6.23 9.95 1.9 15.07 2.67-2.6 3.67-2.6 3.74-9.34 3.67-3.2 0-4.13.68-4.9 2.14-.76 1.3-2.98 1.38-4.74.24-4.5-2.83-4.5-2.83-11.17-1.46-.07-.76-.15-1.53-.15-2.2z"/><path fill="#6C6765" d="M475.83 421.63c-.3-.08-.92-.16-.84-.23.06-.38.45-.3.83.23z"/><path fill="#5D5856" d="M356.4 371.98c1.77-.08 3.38.08 4.37.92-.15.15-.45.3-.53.46-.54 1-.15 2.06-.54 3.06.54-.77.7-1.84 3.3-1.46 0 1.46 2.44 2.76.22 4.3 1.45.6 2.9.52 4.36-.24 1.76 0 3.6-.08 5.2.07 1.84.22 2.83.9 1.92 1.98-.77 1-1.76 1.6-3.9.92-1.46-.46-3.22-1-4.67 0s-3.14 2.14-1.46 3.44c.77.54 1.84 1.07 2.53 1.6 1.3 1 3.14 2 3.37 3.07.15.85-2.68 1.7-2.45 2.84-.08.23-.08.54-.16.77-.76 1.7-4.28 2.53-5.58 4.06-1.45 1.68-3.44 2.9-7.42 2.37-3.2-.38-6.2-.84-4.06-3.2.62-.7-.22-.85-7.42-.24 4.3 1.44 9.18 2.44 3.22 6.03-4.67 2.83-8.04 4.3-13.7 1.53-5.58-2.75-12.77.46-19.12-.46-1.68-.23-1.23 2.07-.23 3.14 1.53 1.6 2.52 3.06-2.9 3.37-3.37-.22-5.3-1.52-7.8-2.37-2.07-.68-.85-3.82-4.6-2.3-2.98 1.23-7.96-.45-9.33 2.53-.7 1.46-4.2 1.15-6.5.62-2.53-.62-5.05-1.23-8.04-1.08-9.33.23-8.26-5.04-14.23-6.73-.76-.23-.38-1.22.46-1.45 4.76-1.38 3.6-2.68 1.24-4.28-.7-.46 1.22-1.23 2.6-1.53s2.75-.45 4.13-.6c1.3-.24 2.6-.54 3.75-.92 1.14-.46 2.45-.85 3.82-1.15 9.4-1.53 15.07.53 19.05 5.35 3.66-4.66 9.63-4.97 16.36-3.98 2.45-.38 4.44-1.3 7.8-1.45-2.52-1-6.73-.92-5.8-3.13.76-.4 1.6-.7 2.6-.92 1.98-.38 4.05-.54 6.1-.54 5.6.46 11.18 1 17.07.38 4.2-.46 7.58.46 11.02 1.46 1.53.46 0 3.52 4.44 1.37 2.66-1.3 3.43-2.9.14-4.13-3.37-1.3-6.9-2.52-11.55-.68-2.92 1.14-5.9 2.44-9.88 1.6-1.53-.38-2.83-1-4.36-1.45-1.38-.37-2.9-.76-4.13-1.3-.23-.15-.46-.3-.7-.53-.14-.53-.14-1.07-.6-1.53-1.45-1.45.08-2.3 2.52-2.9 2.6.53 3.75 1.6 4.44 2.9 2.13 1.15 3.97-.07 5.96-.38 1.37 0 2.68-.08 3.9-.38-1.9.15-3.9.15-5.6.76-1.2.6-2.5.6-3.9.23-.9-1.3-1.6-2.75-4.8-3.14 1.14-1.3 2.6-2.2 5.58-1.45 1.45.38 2.83.84 4.82 1.38.76-3.2-2.45-6.35 2.22-9.18 2.14.23 2.98 1 3.5 2 1.4 3.9 4.83 3.97 10.04 1.06 1.14-.3 2.3-.77 3.9-.46z"/><path fill="#514C4B" d="M328.72 384.14c1.76-.07 3.37.08 4.36.84-1.38 1-3.52 1.23-5.66 1.38-1.15.08-2.37.08-3.44.46-.6.23-1.15.54-1.7.84-2.13.08-4.27.23-6.5.3-.83-.37-1.6-.76-2.5-1.14.06 0-.85 0-.78 0 .08 0-.3.38-.23.38.08 0 .4.3.4.3.52.1.83.32.9.55 2.22 1.45 6.28 1.45 8.96 2.52.45.15.76.6.68.92-.06.3-.75.52-1.13.83-3.83-1.53-6.2 1-9.34 1.15-.38 0-.68.07-1.07.07-5.12-1.37-10.1-2.83-16.52-2.45-2.07.16-3.67-.84-4.82-1.75-2.37-2-3.75-4.14-9.18-.46-2.37 1.6-8.95 1.3-10.7-1.77.14-2.3-3-1.6-5.75-1.53-2.84.07-6.28-.16-7.2-1.46-1.3-1.76 2.9-2.14 4.82-3.06 2.98-1.45 5.9-2.75 10.17-2.37.68 0 1.3-.14 1.75-.45-.7-.7-2.52-.92-2.9-1.76.07-.54.45-.93 1.14-1.38 3.36-1.46 5.12-2.84 2.3-5.05-4.9-3.75-2-6.96 5.1-9.72.78-.84 1.54-1.76 3.84-1.53 1 .08 2.06.6 2.83.46 6.27-1.15 12.85-.53 19.12-1.53.9-.15 1.6-.7 2.44-1.07 1.38 0 2.83 0 4.2 0 .1 1.07.1 2.14.16 3.2-1.22 0-2.68-.75-3.67.17-.6.6-.23 1.83-.77 1.9-3.44.55-7.1.93-10.48.1-.3-.1-.6-.24-.84-.32-1.9-.76-3.2-2.9-6.5-1.3-2.37 1.15.46 2.68 1.38 3.9 1.15 1.46 3.13 2.76 5.43 3.75 2.75 1.22 4.6 2 2.52 4.2-1.45 1.6 2 2.84 6.35 3 3.45.14 4.36.53 4.06 2.13-.38 2-1 3.9-1.6 6.3 5.58-.4 10.7.6 15.98-.55 1.15.76 3.2.38 4.36 1z"/><path fill="#5F5A58" d="M356.4 371.98c-.67.38-1.44.76-2.13 1.22-6.04 2.3-10.86 2.53-13.08-1.53-.78-.7-1.54-1.37-2.3-2.06-.08-1.37-.08-2.82-.16-4.2 0-.92.54-1.76 2.07-2.37.93.3 1.84.6 3 .38-1-.07-2.23.1-3-.37.85-.54 1.92-1.6 2.53-1.6 5.05.3 6.66-1.4 8.03-3.3 5.66-.23 11.32-.38 17-.6.3 1.44 1.06 2.97-3.76 2.82-1.23 0-1.92.38-2.22.92-.54 1.07-1.46.92-2.83.38-2.14-.84-3.98.08-5.66.7-1.3.45-1.85 1.14-.62 1.75 1.45.7 2.9 1.45 4.5 2.06 1 .4 1.23.84.32 1.3-2.45 1.23 2.98 2 .3 3.22-.6.46-1.3.92-2 1.3z"/><path fill="#625F5C" d="M312.43 359.97c1.45 0 3.13 0 3.74.7 1.23 1.44 2.15 2.6 5.9.83.9-.46 3.36-.15 5.05 0 1.68.15.9.7-.16.92-1 .23-2.14.46-2.22 1.07-.15 1.3-.46 2.82-3.2 3.12-3.22.4-4.83-1.07-6.36-2.2-1.84-1.3-2.98-2.77-2.75-4.45z"/><path fill="#6E6A68" d="M112.9 358.6c.1 1.52-.22 2.9-3.9 3.5-1.44.24-2.5.93-2.05 1.7.76 1.37 2.83.3 4.36.3.7 0 1.4.07 2.15.15 0 1.84-2.75 3.6-1 5.5 1.3-.14 2.68-.37 4.06-.45 1.08-.08 2.3.15 1.3.84-1.3 1 .4 1.15 1.08 1.7 1.6 1.13 1.68 2.6-.53 3.43-5.2 1.83-4.67 4.43-5.28 6.8-.23.85.46 1.7-.16 2.6-.75 1.15.55 1.84 2.54 1.77 3.6-.23 5.28 1.53 8.57 1.6.47 0 .77.84 1.15 1.3.08.23.08.46.16.7-.07 2.2-2.3 4.04-5.2 5.73-.38.15-.84.23-1.22.38-6.8 1.3-11.32-.46-15.76-2.37-1.45-.6-1-1.53-.76-2.45.53-2.3.15-4.6-1.84-6.65-.76-.85-2.22-1.3-3.82-1.6-2-1.4-4.06-2.7-2.76-4.75.6-1-1.53-1.53-3.6-1-3.36.92-3.36 0-3.36-1.22 0-.68-1.45-.45-2.45-.37-2.14.15-2.37-.4-1.22-1.23 1.08-.76 2.6-1.76 4.3-1.53 5.04.84 7.95-.76 11.24-2.45-.7-.38-1.38-.76-2-1.07-5.42-2.83-5.42-2.83 1.46-5.05 1.6-.53 2.53-1.14 3.14-2.06 1.68-2.68 5.8-3.9 11.47-3.75z"/><path fill="#74706D" d="M126.6 422.85c-3.13-1.68-7.34-1.68-11.54-1.53-1.53.08-2.68.54-3.45 1.23-2.82 2.37-2.9 4.43.78 6.35.7.38.3 1-.7 1.37-.22.08-.83.23-1 .16-3.58-2.07-5.26.15-7.56 1.07 0 .7.08 1.45.08 2.14-1.53.23-3.83 1.15-4.13-.23-.54-2.05-1.84-2.9-6.12-1.83-.38.08-1.38-.15-1.7-.38-.2-.24.1-.77.47-.93.84-.3 1.92-.53 2.83-.76 3.6-.9 4.3-2.36 3.6-4.12-.3-.7-1-1.3-1.45-1.9-.54-.86-.7-1.93.84-2.54 4.2-1.53 3.3-3.3 2-5.12-.4-.54-.32-1.15.83-1.3.92-.16 2.22-.16 3.06 0 1.9.38 3.6 1 5.35 1.52 8.72-2.98 8.72-2.98 16.14 1 2.83 1.76 5.36 3.52 1.7 5.8z"/><path fill="#8C8885" d="M75.05 434.02c-3.45.08-4.9-.76-3.9-2.52.6-1.15-.3-1.53-2.3-1.6 1-1.6 4.44-.93 6.27-1.7-1.37-1.06-2.75-1.98-3.82-2.98-.77-.68-.23-1.6 1.3-1.68 4.28-.23 3.82-1.68 5.05-3.2 2.52-3.15 2.68-6.06 1.07-9.12 2.75-.53 5.5-1.07 8.2-1.6h-.02c.77-1.07 2.15-1.84 4.14-2.37.07 1.45 2.52 2.75.3 4.36 4.13 2.45 4.2 2.53.7 4.2-3.84 1.85-5.52 3.76-3.15 6.2 1.52 1.54 1.06 1.7-3.53 3.3-.6.23-1.37.38-1.68.6-2.92 2.7-5.75 5.37-8.65 8.12z"/><path fill="#6E6A68" d="M122.1 417.73c-1.15-.85-2-1.84-3.53-2.45-1.14-.46-3.97-.84-4.5-.6-1.46.75-.24 1.6 1.14 2.2.3.16.47.7.3.77-.52.15-1.3.3-1.9.3-2.3-.07-3.6-.83-4.6-1.83 0-.38 0-.7 0-1.07.4-2.68 3.9-5.05 4-7.8-.62-.54-1.54-.54-2.7-.4-1.67.17-2.97-.37-2.67-1.06.84-2.07 3.22-3.98 3.6-6.13.08-.3 1.45-.76 2.37-1 2.52-.45 4.36-1.22 5.36-2.5h.07c4.13-.55 3.9 1.3 5.2 2.28.3.38.46.84.62 1.22 9.64 1.46 9.64 1.46 2.2 6.12-5.1 1.14-.6 3.44-2.74 4.9-.68.83-.6 1.67.24 2.44.15 1.68 3.6 3.6-2.45 4.6z"/><path fill="#74706D" d="M112.9 407.25c1-.16 2.08-.54 2.92-.46 1.23.14 1 .83.3 1.2-3.97 2-3.9 4.9-7.26 7.05-.77-2.75.15-5.43 4.05-7.8z"/><path fill="#797674" d="M92.5 388.73c.52-.53 1.3-1 2.5-.84.55.07 1.16.45 1.16.68 0 .46-.76.6-1.6.46-.7-.08-1.38-.15-2.07-.3z"/><path fill="#878382" d="M99.37 396c.16-.15.4-.46.46-.46.7.08.54.23-.46.46z"/><path fill="#8C8885" d="M77.27 434.94c-.77-.3-1.46-.6-2.22-1 .76.4 1.53.7 2.22 1z"/><path fill="#777371" d="M404.76 385.98c2.45-.08 5.05-.3 6.58.92 1.84 1.45 4.67 1.83 8.03 1.76.92 0 1.46.22 1.23.6-.16.3-.7.62-1.23.77-.53.16-1.37.16-2 .08-1.13-.07-2.2 0-2.5.62-.32.6.6.92 1.67 1 3.45.22 6.8.45 10.26.76-.85.38-1.6.92-2.45 1-5.97.53-8.42 2.52-9.18 5.27-.4 1.23-.54 2.53-2.37 3.52-.62.3-2 .4-2.9.4-.47 0-1.08-.4-1.3-.7-.62-1.15 2.67-2.76-.1-3.44-2.2-.54-5.42-.3-8.17-.16-1.23.08-3 .6-3.6 1.15-1.07.92 1.3.92 2 1.38.37.23.83.6.75.92-.07.22-1 .53-1.45.53-1.07 0-2.14 0-3.06-.23-3.6-.6-5.35.46-6.65 1.9-12.78-.75-13.7-1.13-13.24-4.8 1.23.22 2.45.53 3.75.6 3.2.24 4.67-.38 4.6-1.98-.1-.77-1.62-1.53.14-2.37.7-3.68 10.86-5.05 9.72-9.5-.32-.76 7.48-1 11.46 0z"/><path fill="#6C6765" d="M404.76 385.98c-3.06 1.3-6.2.15-9.25.46-2.14.23-1.68.53-.9 1.37 2.36 2.46 1.36 3.6-4.22 4.45-3.9.54-4.13 2.53-6.8 3.37-1.23-.6-2.3-1.23-3.6-1.84-2.53-1.07-2.68-1.76-1.15-3.06 1.37-1.22 3.52-2 5.9-2.45 3.2-.6 5.27-1.22 3.5-3.13-.83-.92.4-1.76 1.7-2.45 1.52-.78 3.13-1.54 4.58-2.3-1.36-1.84-4.43-2.15-7.56-2.53-1.84-.23-2.76-1.15-3.06-2-.3-.98 1.3-1.6 2.98-2.05 5.05 1.9 5.36 1.9 8.65-.4 1.3 0 3.45 0 2.68.93-1.14 1.38-2.37 2.45-1 3.98 1.23 1.38 2.38 2.37 5.52 2.68 1.45.16 1.6 1.08 1.83 1.77 1.76.38 3.83.53 4.98 1.45-1.22.76-3.97.6-4.74 1.76z"/><path fill="#6F6967" d="M375 399.3c.54.98-1.3 2.9 3.37 2.28 2-.22 3.36.23 4.74.77 1.62.6 3.38 1.15 5.14 1.76 2.67 2.84 2.67 2.84-1.92 5.52-1.3.3-3.3 1.07-3.82.84-5.36-1.9-12-1.23-17.9-2-.84-4.43-1.07-8.8 4.74-12.76.4-.16.77-.3 1.15-.46 1.6.45 2.2 1.14 2.28 2.06 0 .84.62 1.53 2.22 2z"/><path fill="#585352" d="M363 374.96c-3.3 1.23-1.23 3.06-2.6 4.52-.24.22-1.08.53-1.6.53-.47 0-1.24-.45-1.16-.6 1.22-1.9.92-3.83.53-5.74 0-.15 1.7-.46 2.6-.76.77.7 1.53 1.37 2.22 2.06zM367.58 379.02c-1.37 1.14-2.83 1.22-4.36.23 1.46-.08 2.9-.16 4.36-.23z"/><path fill="#6F6967" d="M368.2 393.1c1.75.38 2.2 1.14 2.3 2.06-3.68.23-3.76-.7-2.3-2.07z"/><path fill="#787472" d="M480.88 391.03l.53-.46.4.15z"/><path fill="#686361" d="M368.2 393.1c.07.9.53 1.68 2.3 2.06.07 1.3.14 2.52-1.7 3.67-2.67 1.6-3.2 3.52-1.83 5.13 1.68 1.9-1.38 3.06-2.37 4.5-5.05.85-6.05-.9-7.27-2.2-1.6 3.82-1.6 3.82 9.64 5.35-.15.92-.15 1.76-.46 2.68-.83 2.6-.22 2.9 5.3 2.9 1.06 0 2.2-.22 3.13-.14 2.2.3 3.13 1.3 3.9 2.3.84 1.14-1.3 1.52-2.68 2.06-1.76.7-4.13.92-5.05 2.06-.15.23.54.54.84.84 1.15.62 3.22.3 4.36.92 0 .38.08.7.08 1.07-1.38 1.14-9.33.38-4.13 3.43.84.46-.4 1.6-1.84 1.6-12.53-.14-16.82 4.68-21.64 9.2-2.83.07-5.73.22-8.57.3 2.14-1.46 1.75-3.37 4.66-4.75 2.22-1.07-.6-3.06 2.37-4.36.08 0-.6-.53-1-.76-1-.38-2.44-.54-2.82-1.3.77-1.6 1.46-3.2 3.14-4.74 9.34-5.2 9.34-5.36-4.43-6.66-4.28-.38-7.26-1-5.58-4.05-6.42 4.37-6.42 4.37-13.3 1.23 7.33 5.13.68 6.27-4.98 7.65-1 .08-1.92 0-2.76-.15-1.68-1.3-3.06-2.68-2.75-4.36.23-.46 2.37-.62.92-1.3-.92-.46-1.6-1-2.07-1.6-.38-1.08-2.22-.93-3.75-1.16-2-.68-2.98-1.52-2.06-2.74 1.45-.77 3.6-1 4.97-1.76 1.3-.15 3.2-.23 2.6-1.23-.38-.6-1.83-1-2.67-1.53-2.07-1.3-1.08-4.2 1.83-5.2.54-.15 1.53-.3 2-.15 1.83.53 4.27.45 5.8.9 2.37.7 3.68.54 5.36-.45 1.53-.92 3.13-1.45 5.28-.3 1.07.6 3.3.6 4.5 1.14 1.7.68 1.4 2.6 5.06 2.06 2.83-.46 3.06-2 4.5-3 .62-.37 1.7-.68 2.54-.9 1.22-.4 1.07-.92.3-1.3-2.52-1.15-5.2-2.3-8.8-2.6-.53-.08-1.14-.54-1.07-.77.16-.62 1.38-.85 2.3-.78 2.83.3 5.43.7 7.73-.92 1-.68 2.6-.38 3.82 0 1.46.46 2.83 1 4.6 1.53-1 .4-1.84.7-2.6.92-1.54.54-2.07 1.15-.4 1.6 1.15.32 2.7.4 4.06.47 1.23.07 2-.23 2.45-.77 0-.07 6.96-4.74 7.04-4.74.15-.37.7-.68 1.22-.9z"/><path fill="#7E7978" d="M463.13 428.74c2.14-.07 4.28-.23 6.43-.3-1.92 2.37-6.05 3.36-10.25 3.6-3.44.22-6.65.53-9.86 1.3-1.23.3-3.37-1.15-3.9.45-.16.37 1.76.9 2.83 1.37-.84 1.22-2.9.7-4.44.84-1.38.16-2.83.16-4.28.24-2.83.23-2.83-.38-2.07-1.46.15-.15-.6-.6-1.07-.68-4.2-.7-8.18-1.84-12.84.15-2.6 1.15-5.36-.46-8.2-.15.47-1.7-1.2-5.2-3.2-6.12-.6-.3-2.07-.6-2.68-.4-1.84.47-4.05 1.08-4.9 1.85-1.07 1-1.45 1.6-3.67.92-3.5-1.15-7.4-1.9-12.7-1.53 2.84-1.38 4.83-2.3 6.98-3.2 1.14-.55 4.13-.55 2.52-1.77-1.07-.85-3.3-2-5.13-1.07-3.74 1.83-5.66.23-8.26-.4 0-1.3 2.6-.9 3.76-1.36 1.38-.62 2.45-1.38 4.5-1.46 3.15-.07 5.75-1.37 9.58-.15 3.67 1.16 9.1 1.85 13.77-.6.85-.46 3.45 0 5.2 0 3 3.3 12.25 3.75 13 8.87 2.46-5.8 6.9-5.43 12.4-2.9 1.08 1.3.08 2.75.54 4.13 3.45.38 6.43-1.07 9.57-.6 2.38-.02 3.83 1.5 6.43.44z"/><path fill="#6E6A67" d="M348.6 440.52c.62-1.07 1.23-2.06 1.77-3.13.77-1.4.54-3.3 2.3-4.07 2.2-1 5.66-1.38 8.18-2.6 1.9-.92 4.74-.6 7.2-.15 1 .15 2.3.15 2.3-.6 0-.47-.63-1-1.16-1.4-1-.68-2.6-.3-4-.38-.22 0-.68-.22-.6-.22.23-.3.53-.85.92-.85 3.6-.3 7.2-.53 10.7-.76-.38.53-.83 1-1.3 1.53-1.52 1.68.77 3.82-2.2 5.12-5.75 2.53-10.95 5.44-17.84 7.2-1.83.38-4.13.15-6.27.3z"/><path fill="#7E7978" d="M415.62 434.17c-6.5 5.05-6.5 5.05-17.97 4.2-2.07-.14-4.36.1-6.12-.6-2.37-1-4.52-.3-6.9.23-5.42 1.22-5.42 1.15-7.94-1.9.98-.24 2.5-.32 2.82-.63 2.9-3.13 8.03-2.9 13.08-2.6 4.05.23 7.72 1 12.24 0 3.9-.92 7.2.84 10.78 1.3z"/><path fill="#6F6967" d="M366.9 411.6c-1.76.54-3 2.45-5.67.62-1-.6-2.67-1-4.05-1.46-.46.4-.92.7-1.15 1-.84 1-1.9.92-3.06.3-1-.53-1.53-1.37-.76-1.98 2.6-2.07 3.98-4.3 3.98-6.66 0-.08.7-.23.92-.23.6.14 1.6.37 1.53.45-1 2.6 1.7 3.98 5.97 4.82-.08 1.22 1.3 2.06 2.3 3.14z"/><path fill="#7E7978" d="M372.48 438.38c1.53 1.53 1.45 1.84-1.23 2.14-1.76.16-3.52.16-5.27.23 1.68-1.14 4.2-1.6 6.5-2.37zM374.47 436.16c-.7.38-1.38.77-2.07 1.23-.15-.17-.23-.32-.38-.47-.38-.46-1.3-1 .08-1.38 1.07-.38 1.9.08 2.37.6z"/><path fill="#6E6A67" d="M376.15 425.22c-1.76.08-3.37-.07-4.36-.92 1.75 0 3.43.08 4.35.92z"/><path fill="#7E7978" d="M382.35 430.58c-.3.07-.7.15-.77.15-.23-.08-.23-.3-.3-.46.3-.07.68-.15.76-.15.23.07.23.3.3.46zM363.9 440.83c-.75 0-1.52.08-2.2.08.68-.53 1.45-.53 2.2-.07z"/><path fill="#736E6C" d="M485.93 382.23c.53.15 1.07.23 1.68.38-.52.17-1.06.47-1.6.55-.53 0-1.06-.23-1.6-.3.46-.24 1-.47 1.53-.62z"/><path fill="#595352" d="M153.23 435.7c-3.06-1.76-2.68-4.6-6.73-6.04-.54-.15-1.07-.38-1.76-.7-3.37.32-3.52 2.7-6.8 3.07-2.23-.46-3.38-1.22-2-2.44 2.98-2.62 2.14-4.3-3.52-5.37-4.9-1-6.04-3.06-3.82-5.9 4.82-.07 12.77 5.06 13.7-2.13 1.2-1.7 4.8-1.46 6.95-2.45.6-.3 1.3-.7 1.9-1 .63-.3 1.3-.6 2-.9 1-.55 1.92-1.08 3-1.54.9-.22 1.82-.38 2.82-.38 5.35 3.52 4.6 5.2-3.9 7.5 3.6.3 8.87-1.3 9.4 1.9-.45 2.6 3.3 4.3 6.05 5.83 1.83 1.07 7.5 4.13 9.48-1 .54-1.53 3.75-2.22 6.9-2.22 3.97.08 5.42 1.3 5.34 3.14.23.38.54.77.85 1.15.52.53 1.2 1 2.13 1.37 3.2.15 3.13-1.15 3.9-2.07.38-.46 1-.84 1.9-1.15.47-.07 1-.07 1.47-.15.45.08 1 .08 1.45.15 4.28 1 6.12 3.75 12.93 3.83-3.37 2.15-5.6 3.9-9.1 5.36 6.42-1.9 13.23-3.44 18.58-6.12 1-.07 2-.07 3 0 5.5.84 11.16 1.3 17.05 1 3.14 2.37 10.8 2.6 11.48 6.2-3.37.9-4.74 2.67-6.96 4.05l-1.07.06-1.07.08c-2.53-3.3-9.8-2.6-14.46-4.05-5.43-1.7-9.4.06-13.92 1.06-.62.46-1.15 1.3-1.84 1.3-6.5.46-13.08 1.83-19.58.7-2.15-.4-3.6-.78-3.3-2.23.3-1.53-.22-3.06-.38-4.82-4.13.77-5.58 2.46-6.27 3.83-.7 1.53-2.22 1.7-4.44 1.76-1.08.07-2.15.07-3.22.14-.38 0-.7 0-1.07 0-3.66 0-3.97-2.67-7.5-2.37-2.6.23-4.96 1.38-7.64 2-2.44.53-4.13 0-5.5-1.54-1.84-1.9-3.45-1.9-6.2.08-.23.24-.15.7-.23 1z"/><path fill="#585351" d="M343.87 429.97c.76.3 1.45.68 2.22 1-2.16.3-5.52-.32-5 1.9.32 1.15-1.36 1.53-3.35 1.7-2.22.14-3.3-.32-3.06-1.47.06-.46-.32-1.07-.93-1.45-.6-.3-1.76-.46-2.75-.46-.46 0-1.23.37-1.6.6-.4.3-.47.7-.55 1.07-.23 1.15-1 2.22-3.82 2.22-2.45 0-3.83-.7-4.06-1.92-.16-.6-1.15-.84-2.3-.7-1.6.24-2.53.78-2.07 1.62.23.53.92 1 1.07 1.45.85 2.07.16 2.45-3.97 2.53-5.05.15-10.03.38-15.08.53.7-2.97 8.27-1.75 9.72-4.58-3.37.7-4.74 2.83-8.42 2.9-3.67.08-6.35-.15-5.73-2.44 3.13-2.75 2.75-3.44-2.37-4.2-4.2-1-9.26-.24-13.55-1.16-10.63-2.67 1.92-3.67 2.38-5.5 1.45-1 3.06-1.92 5.5-2.37.92-.16 1.84-.16 2.76-.16 2.68.3 5.43-.08 8.18-.08 1.92.3 3.06 1.07 4.44 1.76 2.68 1.37 1.38-.77 2.52-.85 1.08-.53 2.38-.84 3.83-.9 1-.1 1.92 0 2.92.06 2 .22 3.36.83 4.6 1.52 9.63 1.3 19.8 1.84 28.9 3.98.16.38.08.7-.23 1-1.08 1.07-3.52 1.14-5.2 1.83 1.75-.15 3.6-.23 4.97.54z"/><path fill="#4E494A" d="M294.22 434.48c.92.53 1.6 1.15 2.75 1.45 2.37.6 4.3.38 5.43-.7.85-.75 1.23-1.67 2.22-2.43 1.23-1 4.44-1 6.58-.16 1.84.7.7 1.53 0 2.37-1.14 1.32-3.13 2-5.8 2.16-2.46.15-5.06.07-6.67 1.37-.7.08-1.9.16-2 .3-1.44 2.3-4.88 2.23-8.4 2.15-2-.84-4.52-.6-6.9-.6.47-.7 1.4-1.4.17-2-2.15-1-2.07-2 1.14-2.14 3.98-.23 7.5-1.38 11.48-1.76z"/><path fill="#504B4A" d="M220.47 435.78c.54-1.38 5.05-.77 4.98-2.45 0-.6-1.15-1.45 1.22-1.6 1.3-.08 2.68-.4 3.98.15 5.58 2.22 5.58 2.22 11.85 2.3 2 0 3.14.53 4.37 1.14 1.9.92 1.83 2.14 1.9 3.37-5.73-1-11.16-2.77-17.97-1.47-1.45.23-2.83-.07-3.67-.6-1.7-1.08-4.13-.93-6.66-.85zM278.7 428.74c1.3-.23 2.5-.92 3.9-.38 1.14.46 2.06.53 3.6.15 4.73-1.06 4.73-.98 5.57 1.85-.15.7-.46 1.83-1.76 1.83-3.2 0-6.1-.07-8.48 1.53-1.07.7-3.37.63-5.05.47-2.07-.15-4.13-.38-6.12-.6-.38-.08-.84-.16-1.22-.16-1.07-.37-1.7-.9-1.6-1.67.45-.46 1.14-.7 1.98-.92 1.4-.15 2.7-.15 4-.07 2.2.15 3.97 0 4.5-1.38.23-.3.46-.46.7-.6zM251 438.7c.23-.7.46-1.4.76-2.08.92-2.22.92-2.22 5.6-1.53.37.07.75.07 1.06.14 1 .3 1.53.77 1.68 1.38-.15.16-.38.4-.54.54-1.22.3-2.9.38-3.44.84-1.6 1.3-3.3 1-5.12.7zM270.27 433.5c1.08.83 2.22 1.67 3.22 2.43-3 1.76-6.13 2.07-9.65 1.07-.16-.23-.3-.46-.46-.6 1.44-1.54 2.5-3.22 6.87-2.9zM263.93 437c-1.38 1.15-2.83 1.23-4.36.23 1.45-.76 2.82-.84 4.36-.23z"/><path fill="#777371" d="M490.6 413.37c-.7 0-1.38 0-2 0-.3 0-.84-.16-.76-.23.08-.46.7-.6 1.45-.4.53.1.84.4 1.3.63z"/><path fill="#575251" d="M180.08 358.6c.7 0 1.45-.1 2.14-.1 4.13.93 7.12 3.7 13.08 1.54 1.38-.76 2.83-.68 4.3-.22.75.3 1.2.68 1.44 1.14.08.46 0 1-.23 1.46-.75 2.44 1.3 3.3 5.9 2.37 2.9-.62 5.44-1.7 8.57-2.15 2-.08 3.98 0 5.97-.08 2.6.08 4.97.3 6.73 1.3.7 0 1.45-.08 2.14-.08 3 2.52-3.35 4.2-3.35 6.5-.92.6-2.22.9-3.67.9-1.38-.06-2.53-.3-3.45-.75-.53-.3-.92-.6-1.22-1-.37-.15.54-1.14-1.3-.45l-1.06.15c-.4 0-.7-.08-1.07-.08-.3-.07-.62-.15-1-.23-1.07-.15-2.14-.15-3.3.08-.75.15-1.6.3-2.36.54-1.3.3-2.5.6-3.9.76-4.05 1.07-10.24-1.9-11.54.54-2 3.67-13.93 4.28-10.48 9.02-.16-1.83-.84-3.82 4.5-4.05 4.07-.16 9.04-1 10.2 2.06.3.83.37 1.75 1.52 2.44 5.9 3.67 7.42 5.13 7.95 7.96.3-1.6 2-2.76 4.6-3.52 1.52-.4 3.05-.4 4.58-.08 1.23.54 1.68 1.22 1.76 2.06.22 2.53-3 4.2-7.05 6.12 6.5-1.37 10.56.23 14.84 1.46 6.65 3.6-.16 3.67-4.9 4.28-.92.08-1.92.08-2.83.16-5.05.84-6.58 3.3-9.4 5.2-2.84 1.83-5.98 2.45-8.28.23-2.45-2.44-5.82-2.6-10.4-1.37-.93.23-1.92.3-2.84.23-1.84-.46-2.22-1.38-2.14-2.37.15-.47.46-.85 1-1.24 1.45-.07.68.7.83 0 .08-.46-1-.38-1.75-.38-2.45-.15-4.98-.3-7.5-.08-2.6.23-5.2.92-7.88.62-2.45-.54-5.13-.54-7.88-.46-.92-.08-1.84-.23-2.6-.46-3.9-1.38-7.88-2.6-11.17-4.3-.77-.22-1.53-.45-2.22-.67-1.3-.54-2.68-1.08-3.82-1.76-1.38-1.15-1.53-2.53-2.45-3.75-.38-.38-.7-.84-1-1.3-.6-.62-1.53-1.15-2-1.76-2.97-3.9-1.36-4.98 6.9-4.67 2.45.07 4.97-.7 7.27 0 1.07.14-.23.9.46 1 1 .06 1-.7 1.84-.93 3.9-.4 7.73-.46 11.55-.4 7.18.1 7.4.24 4.12 3.53-1.3 1.3.62 1.53 1.53 2.07 2.22 1.22 2.84 2.37-1.07 3.3-1 0-1.76-.24-2.6-.4.16.4 1.23.08 1.46.47 2.2.45 5.05 0 7.5 1.37-4.6-3.12-2.84-6.34-1.23-9.93-5.42 0-10.4-.7-16.13-.46-7.65.4-9.1-1.52-4.67-4.9 1.22-.9 2.37-1.98 4.2-2.6 6.13-2.05 1.92-3.35-.45-4.88-2.83-5.6-2.3-5.74 9.33-5.2 1.84.07 2.3-2.6 5.2-3.37 3-.23 5.97.84 8.8-.46z"/><path fill="#4E4849" d="M279.9 360.43c-.75.84-1.6 1.6-2.28 2.52-.92 1.15-3.98 2.07-3.2 3.37 1.06 1.76 1.13 3.9 5.2 4.82 1.52.38 1.98.92.75 1.68-2.3 1.45-4.43 2.98-8.5 3.2 1.16.78 2.84.93 4.68.93 1.37 0 3.2 0 3.06 1-.15.84-1.83 1-3.2 1.14-1.38 1.14-3.37 1.37-5.6 1-2.36-.4-4.12-.55-3.6 1.3.24.9-1.3 1.2-2.9 1.14-2.36-.16-4.2.07-5.35 1.3 3.98.68 7.8 1.53 11.55-.62.77-.38 2.07-.53 2.83 0 .4.23.46.7.4 1-.32.92-.78 1.76-1.24 2.68-.62.38-1.3.6-2.23.6-1.68 0-3.3.3-4.43 1-1.7 1.07-3.52 1.53-5.74.54-4.36-1.3-9.26-1.53-14.3-1.45-2.15 0-4.52-.1-4.37-1.62.08-1.07 1.76-1.53 3.68-1.6 3.83-.16 6.9-1.08 9.26-2.68-4.2 2.44-8.5 2.98-14.07 1.45-5.75-1.6-5.9-4.13-5-6.8.7-1.92 2.84-3.76 5.75-5.3 7.8-2.28 14.23-5.34 18.82-9.32.6-.54 1.68-.6 2.75-.38.54-.23 1.07-.46 1.6-.77 2-1 3.22-1.07 3.68-.23.15.3-.08.7.08 1.07 1 1.84 1.14 1.92 3.98.3 2.37-1.45 5.28-1 7.95-1.3z"/><path fill="#534E4D" d="M262.63 361.27c-2.53 1-2.15 2.22-1.6 3.44.22.55.83 1 .98 1.47.1.3-.14.76-.6 1-.38.22-1.37.3-1.9.22-1.92-.4-3.76-.93-5.67-1.23-.54-.08-1.3.15-2 .3.24.23.47.54.77.77.16.15.62.15.84.3 2 1.15 1.84 1.38-.68 1.76-1.76.3-5.6-.38-4.98 1 .85 1.83-1 1.37-2.52 1.3-1.38-.08-2.68-.46-3.98-.7h-1.07c-.68.16-1.3.4-1.83.7-.68.15-1.45.3-2.2.38-1.24.23-2.3.46-3.46.76-.83.16-1.67.16-2.6.08-2.05-.46-3.66-1.15-4.12-2.3-2.22-1.68-2.3-3.13 1.68-4.43 1.76-.55 2.15-1.4 2.3-2.3 4.6-.4 9.33 0 13.77-1.38 1-.3 2-.08 2.37.53.6 1.07 1.84.92 2.9.15 1-.76 1.7-1.6 2.53-2.44 1.84.3 3.6.6 5.74 0 2.14-.54 4.05-.4 5.36.6zM214.97 363.5c-1.6 1.52-5.5 1.44-7.73 2.82-.92.53-4.67 1.3-6.73.3-1.3-.68-3.82-1-3.5-2.3.22-.9.98-1.67 2.66-2.2 2.15-.47 4.67-.47 6.43-1.4.68-.37 1.44-.37 2.13-.06.7 0 1.46-.08 2.14-.08 1.08.38 2.3.7 3.3 1.15.9.38 1.3 1.07 1.3 1.76z"/><path fill="#4A4747" d="M214.97 363.5c-1.76-.4-2.15-1.16-2.3-2.08l.38-.53c.7-.17 1.3-.4 1.76-.7 2.3.53 3.23 2.22 6.6 1.83.76.23 1 .46.76.7s-.46.37-.77.37c-2.07.16-4.22.3-6.44.4z"/><path fill="#534E4D" d="M221.47 363.18c0-.38 0-.7 0-1.07 1.3-.07 2.68-.14 3.98-.14 3.3-.08 3.3-.08 2.67 2-2.52.14-4.5-.47-6.65-.78z"/><path fill="#4A4747" d="M206.17 360.66c-2.83 2.37-3.14 2.37-6.43 1.37 0-.38 0-.68-.08-1.07 1.38-.76 2.84-.76 4.3-.23.75 0 1.52-.07 2.2-.07z"/><path fill="#534E4D" d="M199.66 359.9c-1.45.07-2.9.15-4.28.22 0-.38 0-.7 0-1.07 1.68-.15 3.3 0 4.28.84zM204.03 360.73c-1.46.08-2.9.16-4.3.23 0-.38-.07-.7-.07-1.07 1.76-.08 3.37 0 4.37.83zM251.76 360.66c-.7 0-1.37 0-2 0-.3 0-.83-.16-.75-.23.1-.46.7-.6 1.46-.4.46.1.84.4 1.3.63z"/><path fill="#4A4747" d="M208.4 360.5c-.7 0-1.47.08-2.16.08.62-.7 1.38-.76 2.15-.08zM212.75 361.42c-.77-.3-1.46-.6-2.22-1 .76 0 1.45-.07 2.22-.07.46.23.7.46.53.7-.23.22-.38.37-.53.37z"/><path fill="#534E4D" d="M212.75 361.42c0-.38 0-.7-.08-1.07.7 0 1.45-.08 2.14-.08-.68.4-1.37.77-2.05 1.15z"/><path fill="#655F5E" d="M143.6 415.58c.07 1.7 3.28 3.22.45 5.05-.92.6-1.6 1.46-3.14 1.38-3.74-.14-7.8 0-10-1.98-.24-.23-.85-.38-1.3-.53-.24.52-.7.98-.62 1.52.15 1.53 2.9 1.83 4.9 2.44 7.42 2.15 7.5 2.07 3.6 6.66-.62.76 0 1.38.45 2-1.3.83-2.07 1.9-4.2 2.36-.7 0-1.46.07-2.15.07-1.84-.45-4.13-.76-1.9-2.2 1.75-1.24 3.35-2.46 4.88-3.7.6-.52.3-1.06-.7-1.36-4.65-1.3-6.1-2.16-7.1-4.45.38-2.22-.54-4.06-4.5-5.2 2.82-1.6.98-2.9-.24-4.36-1.23-.7-1.38-1.4-.15-2.15.45-.7 1.37-1.38 1.37-2-.15-2.6-.23-2.6 2.76-3.6.38 0 .84 0 1.22-.07 1.22.08 2.37.23 3.52.54.7.23 1.38.46 2 .7 1.3.45 2.6.83 4.35.75.83-.15 1.6-.3 2.36-.46.77-.22 1.6-.37 2.52-.52.46 0 .92 0 1.38 0 2.37.3 4.6.6 4.82 2.06-6.5 4.52-6.5 4.52-19.28 4.36 5.5 1.3 11.25.7 14.7 2.68z"/><path fill="#7C7A77" d="M111.92 434.4c.53-.53 1.3-1 2.45-.84.53.08 1.14.46 1.14.7 0 .45-.75.52-1.6.45-.6-.14-1.3-.22-1.98-.3z"/><path fill="#5B5755" d="M158.74 367.24c1 1 2.3 1.76 4.97 1.3 1.16-.23 2.3-.23 2.76.3.7.77-.15 1.46-1.37 1.84-5.22 1.6-8.66 3.98-11.95 6.42-1.37 1.08-.3 2.07 2.14 2.07 2.2 0 4.35 0 6.1-.84 3-1.46 4-.54 5.22.76.6.68 2.3.6 3.82.38 1.46-.23 2.22-1.84 4.13-.77 1.15.62 2.07 1.47 1.38 2.46-.84 1.22-.92 2.45-1.38 3.75-.76 2.07-.92 3.9 2.9 5.13 1.4.46 2.23 1.3.77 2.68-2.3-1.3-4.82-2.28-8.33-2.44-1.83-.07-2.9-.92-3.67-1.68.92-.23 2.22-.3 2.83-.7 1.3-.83-.07-1.13-1.37-1.44-1.24-.3-2.6-.54-3.45-1-1.15-.6-2.38-1.45-1.6-2.3.83-1 2.82-.83 4.66-.76.92.08 2-.15 2.9-.23.24 0 .55-.3.55-.45 0-.16-.15-.4-.38-.46-.16-.08-.54-.23-.84-.23-6.28.4-12.55-.07-18.82.77-1.22-.92-2.9-.92-4.5-.15-2.07 1-3.53 1.15-5.06-.15-.68-.62-2-1.08-3.52-.46-1.45.54-.68 1.3-.9 2-.32 1.14.98 1.53 2.6 1.9 2.6.7 1.44 1.77.68 2.76-2.15 1.46-6.28 1.84-7.5 3.9-.77 1.38-3.52 2-6.12 1.46-3.37-.7-2.9-2.14-1.46-3.6 2.53-1.9 4.06-3.6.92-5.74-2.06-1.37-3.9-3.36-.46-5.35 1.07-.6 0-1.22-.84-1.84-1.45-1.15-.46-2.07 2.14-2 2.22.08 4.2 0 6.12-.6 7.88.3 13.62-1.77 18.67-4.67 2.14-1.23 3.98-2.3 7.27-2z"/><path fill="#605C5A" d="M158.74 367.24c-.77.38-1.46.84-2.22 1.14-1.53.7-2.76 2.22-2.45 3.06.08.16.15.3.23.54.3 1.15-1.45 2-2.98 1.38-2.6-1.08-4.9-1-7.42.15-1.38.62-2.45 1.4-3.9 1.85-1.53.53-3.37.6-5.05.22-1.46-.3-1.6-1.07-1.9-1.68-.02-.4-.1-.7-.1-1.08-.37-1.22-2.2-1.68-4.43-2-1.6-.52-2.9-1.44-1.53-2.13 3.13-1.62 2.44-3.15 1.44-4.9-.6-1.08-.23-2.15 3.06-2.15 1.07 0 2.07-.38 1.84-1-.23-.6-1.38-.68-2.37-.76-1-.08-1.9-.24-2.9-.85 2.9-.15 5.88-.3 8.8-.54 2.5 1 4.35 2.54 8.79 2.08 1.68-.15 3.6.84 5.5 1.22 1.3.23 3.37.23 3.75-.53.7-1.38 2.3-1.7 4.68-1.76 3.9-.14 7.8-.37 11.78-.53-.23.54-.15 1.23-.77 1.53-3.52 1.46 1.07 1.7 1.07 2.6-3.9.77-7.35.46-10.7-.53-1.85-.54-4.3.53-3.84 1.68.38 1 1.07 2 1.6 3z"/><path fill="#5B5755" d="M128.52 370.83c2.22-1.22 3.9-.3 5.28.3 1.3.54.46 1.23-.92 1.7-2-.4-3.44-1-4.36-2z"/><path fill="#6E6A68" d="M119.88 384.3c-.23.15-.46.38-.77.38-1.14.15-2.74-.84-2.36-1.46.08-.15.46-.38.76-.38 1.15-.15 2.68.84 2.38 1.46z"/><path fill="#736F6D" d="M391.14 372.5c-.53-.14-1.14-.3-1.53-.6-.52-.38-.2-.7.63-.76.15 0 .53.23.6.38.16.3.16.7.3 1z"/><path fill="#6A6563" d="M133.65 434.48c0-1.38 1.37-2.22 4.2-2.37.92 1.23 3.3 2.15 2.83 3.76-2.98.23-5.2-.3-7.03-1.38z"/><path fill="#534E4D" d="M195.3 360.05c-7.1 2.14-8.4 1.98-13.08-1.53 2.38-.08 4.82-.3 6.58.76 1.7 1.07 4.13.92 6.5.77z"/><path fill="#777371" d="M491.05 421.78c.6-.3 1.3-.6 1.92-1-.08.3-.23.62-.3.85l-.85.07-.77.08zM493.12 420.8c.92-.93 2.52-1.16 4.28-1.24-.9.84-2.52 1.07-4.28 1.23zM445.6 425.22c-1.82-1.37-4.96-.76-7.26-1.22-1.52 1.45 1 2.22.77 3.3-.14.83.32 1.9-2.05 2.2-1.92.24-3.22-.53-4.44-1.06-1.06-.54-.76-1.3-1.06-2-.84-1.98-3.06-3.9-6.96-4.2-5.44-.38-3-2.14-3.14-3.52 1.38-.15 2.83-.15 3.2-1.15.16-.3.78-.84.85-.84 3.5.54 6.88-.46 10.32-.6 2.3-.1 2.6.9 2.9 1.83-.3.15-.6.22-.83.38-1.54 1.07-3.76 2.37-2.23 3.36 2.22 1.46 5.05-.15 7.57-.6.77.3.7 1.06 2.22.9.76.32 1.45.62 2.22 1 .76.3 1.14.7 1.07 1.23-.54.7-1.3 1.3-3.14 1z"/><path fill="#A09B9A" d="M410.65 404.26c4.44-.23 5.66.4 5.36 1.46-.15.53-.68 1.07-1.98 1.07-1.9-.1-3.3-.55-3.22-1.62.08-.6.92-1-.15-.92z"/><path fill="#A7A4A2" d="M422.36 409.7c.15.15.38.3.3.38-.23.45-.7.53-1.22.15-.16-.08 0-.3.15-.46.14-.08.53-.08.76-.08z"/><path fill="#777371" d="M428.94 392.4c.3.08.9.16.84.23-.16.4-.46.3-.84-.23zM440.87 417.8c-.7.77-1.38.84-2.14.08.76 0 1.45 0 2.14-.08z"/><path fill="#74706E" d="M445.6 425.22c.7-.38 1.4-.76 2.16-1.14.6-.4 1.37-.77 2.06-1.15 3.6 1.38 4.82 3.82 8.95 5.05.7.23.92.46.7.7s-.47.37-.62.37c-5.05-.15-9.1 2.06-14.08 2.06-.84-2.13.46-3.96.84-5.88z"/><path fill="#837F7E" d="M458.77 428.9c0-.4 0-.7-.07-1.07 1.45.3 2.9.53 4.36.84-1.3 1.22-2.76 1.3-4.3.22z"/><path fill="#7E7978" d="M445.46 421.93c-1.9.7-1.9.7-2.22-.9.77.3 1.53.6 2.22.9zM449.82 422.85c-.7.38-1.38.77-2.06 1.15 0-.38 0-.77-.08-1.07.7 0 1.38-.08 2.14-.08z"/><path fill="#645F5D" d="M295.75 421.48c-3.2 1.45-3.2 1.45-6.5.3-.77-1-1.46-.53-2.22.08-2.07.53-3.44 1.3-4.2 2.37-1.77.6-3.53 1.68-5.67 1.38-2.83-.38-1.76-1.68-.84-2.67 3.13-3.14-2.37-4.2-5.6-4.44-2.9-.16-5.72 1.9-5.42 3.97.3 1.9-2.9 4.44 3.67 5.43 2.68.38 2 2.45-1.14 3.52-2.6 2-4.75 4.28-10.7 3.75-.1-1.45-2.08-2.37-4.6-2.45-4.9-.08-5.74-1.76-6.58-3.6-3.98-1.07-4.52-2.44-1.3-4.28-1.15.38.23-.46-.38-.23-8.8 3.53-16.07 2.46-22.8-.9 1.07-.7 2.45-1 3.98-1.08.68 0 1.45 0 2.06.08 1.3.23 2.54-.15 3.76-.23-1.22-.15-2.68.38-3.82-.15-1.3-.77-1.7-1.76-2-2.76-.9-2.3-1-4.97 4.14-5.96 6.58-1.3 5.05-3.06 3.44-5.13.38-.53 1.07-.84 2.06-1.07 1.53-.15 3-.07 4.44-.07 2 0 3.98 0 5.97.07 1.98.15 3.74.46 4.66 1.45 1.45.54-3 3 2.67 2.22 3 .7 4.6 2 5.5 3.83.7-3.52 5.2-5.2 10.5-6.66 1-.07 1.83-.07 2.67.23 1.07.46 1.38 2.07 3.67.46 0-.6.08-1.15.08-1.76.84-.3 1.68-.7 2.6-.84.53-.08 1.3.15 1.9.3 2.38.54 3.84 2.53 7.13 1.54 2.52-.7.84-2.38 1.53-3.52.16-.23 1-.62 1.46-.54.6 0 1.38.32 1.53.62.37.6-.24 1.6 2.06 1.3 1.3-.23 2.75-.7 3.6-1.22.83-.54-.77-.77-1.16-1.23-.53-.53-.23-1.07 1.15-1 2.07.16 4.82.4 5.05 1.54.6 2.76 4.74 4.06 8.03 5.75-.6 1.76-.6 1.76-4.28 1.3-.46 0-1 0-1.46.07-3.37-.3-6.9-.23-10.03-.15-1.68-.23-1 .92-.84.23 0-.08.23 0 .7-.08 4.88-.3 6.5 1.46 8.02 3.14.38.38.7.84.84 1.3.15.46.15.92.07 1.38-.15.23-.3.38-.46.6-.53.4-1.14.62-1.98.7-.6.3-1.45-.84-2 .15 0 .37-.22.76-.45 1.06-.3.77-1.3 1.38-2.52 1.92z"/><path fill="#575251" d="M236.54 407.93c-.7 0-1.46.08-2.14.08-2.45.4-4.82.93-7.42 1-3.9.08-6.12-1-6.05-2.82.08-1.92 2.83-2.45 6.12-2.22 2.9.23 5.66-.16 8.5-.7 2.98-.6 7.26-.68 7.87-2.52.85-2.52-4.28-.76-6.2-1.53-2.36-.9-3.9-1.9-4.2-3.43.6-1.68 3.67-2.37 5.97-3.36.83-.3 1.75-.45 2.66-.68 8.1-1.9 15.15.3 22.65.76.93.16 1.7.46 2.38.77.46.46.38.92-.3 1.3-1.08.08-2.22.15-2.6.76-.16.24.3.78.76.86 2 .3 4.13.38 6.12.68.46.08 1.07.46 1.07.77s-.54.77-1 .85c-2.06.3-4.28.46-6.35.77-1.22.22-3.06.53-2.3 1.45.47.53 1.85.15 2.76-.08 1.53-.4 3.6-.16 3.14.6-2.9 3.98 1.9 5.13 7.73 5.97 1.77.38 2.15 1.15 2.23 2.07-2.76.68-4.67 0-6.5-.77-4.14.54-8.42-2.37-12.32.6-.83.32-1.75.4-2.75.4-3.44-.85-6.12-3.22-10.94-.92-2.13.07-4.27.23-6.5.3-.75-.3-1.67-.53-2.36-.92zM261.7 388.35c2 .46 2 .46 2.15-1.22 2.14-.84 4.28-.92 6.5-.3.7 0 1.45-.1 2.14-.1.37.47.53 1.3 1.14 1.4 2.37.22 4.82.3 7.42.37 1.22-1.45-1.84-1.14-2.37-1.83-.47-.54-.4-1.07.68-1.3 4.8-1.3 11.24-.54 12.24 1.9 1 2.53 4.36 2.84 8.18 3.22 1.23.15 2.07-.24 2.68-.7.7-.53.3-1.68 2.3-1.6 1.75.07 1.07 1.37 1.83 1.6 2.84.92 2.3 3 5.3 3.75-.85.77-2 1.07-3.53.84-2.3-.4-3.3-1.77-6.04-1.77-.7 1.38 1 3.37-4.3 3.45-.45 0-.9.9-1.44 1.37-.62.54-1.7.77-2.46.3-1.07-.68-2.3-1.37-2.75-2.2-1.77-3.07-6.06-4-12.1-3.6-1.45.07-2.83.15-4.3.22-3.05.23-5.1 2.15-8.63 1.46-1.84-1-4.9-1.23-6.43-2.37-1.45-1.07-3.13-2.53 1.77-2.9z"/><path fill="#585352" d="M322.37 387.66c0-.38 0-.7 0-1.07.84-.32 1.45-.77 2.14-1.16 2.92-.15 5.75-.3 8.66-.38 1.6.92 3.82 1.3 5.43.23 2.6-1.7 7.1-1.92 9.1-4 3.44 1.3 5.96 2.46 8.87 3.3 4.13 1.23 4.44 1.15 2.52 3.14-1 1.07-.47 1.68.6 2.37.7.55 0 1.23-1 1-3.36-.6-5.2.3-7.5 1.38-.83.46-2.66.38-4.12.46-.3 0-.84-.07-.92-.23-.07-.3-.15-.67.08-.9.77-.85 3.2-1 3.52-2.07-3.67-1.22-7.34-2.52-12.24-1.68-5.28.9-10.18.3-15.15-.4zM341.2 371.6c.76.3 1.67.6 2.13 1 1.6 1.52 3.83 1.6 6.8.9 1.24-.3 2.77-.22 4.14-.3-.92 1.23-2.83 2-5.12 2.6-4.2 1.23-6.2 1-7.65-1.3-.54-.92-2.38-1.83-.3-2.9zM335 381.62c2.75-1.6 6.34-2.45 9.94-3.3.46-.07 1.22.16 1.76.3.15.1.23.4.07.47-1.53 1.22-2.98 2.52-5.73 3.05-2.15.54-3.9-.23-6.05-.53zM326.35 378.8c.7 0 1.38-.1 2.06-.1 3.84.16 4.15.4 3.23 2.15-.16.3-.54.7-.77 1-2.52-.62-3.2-1.92-4.5-3.06z"/><path fill="#514C4B" d="M266.3 393.55c2.06-.6 4.05-1.22 6.12-1.76 1-.24 1.83-.16 2.52.3-.7.38-1.45.76-2.14 1.15-.7.38-1.53.76-2.14 1.14-1.46.07-2.9.15-4.3.22-.06-.3-.06-.7-.06-1.07z"/><path fill="#575251" d="M311.58 388.2c0-.38 0-.7-.07-1.07l.16-.46.84-.16-.84-.06-.23-.46c3-1 3.6-.92 4.2.38.24.54.16 1.07.24 1.6-.7 0-1.46.08-2.14.08-.7.08-1.46.08-2.15.16z"/><path fill="#585352" d="M330.8 381.85c1.44-.08 2.9-.16 4.35-.23-1.38 1.22-2.83 1.3-4.36.23zM328.72 384.14c-1.76.08-3.44-.07-4.36-.84 1.76-.15 3.44 0 4.36.84z"/><path fill="#575251" d="M281.44 393.94c-.7 0-1.37 0-2 0-.3 0-.83-.16-.75-.23.07-.45.68-.6 1.44-.38.54.08.92.38 1.3.62zM270.66 394.47c.68-.38 1.45-.77 2.14-1.15-.77.3-1.45.77-2.14 1.15zM281.44 393.94c.3.07.92.15.84.22-.07.4-.45.3-.84-.23zM311.5 387.13c-1.06 0-2.67.15-2.67-.4 0-.52 1.6-.52 2.68-.67.47.22.54.45.47.68-.16.23-.3.3-.46.4z"/><path fill="#5D5856" d="M324.44 385.44c-.7.4-1.38.77-2.14 1.15.76-.4 1.45-.77 2.14-1.16z"/><path fill="#575251" d="M311.58 388.2c-.15.15-.38.46-.45.46-.77-.08-.62-.23.45-.46z"/><path fill="#66615E" d="M340.8 362.95c2.07-.07 4.14-.15 6.2-.07.54 0 1.46.38 1.38.6-.07.7-1.22.7-2.14.54-2-.15-4.2-.07-5.43-1.07z"/><path fill="#655F5E" d="M125.08 389.42c.15.84-.23 1.84 1.15 2.45.6.3 1.83.38 2.83.3 1.07-.07 1.9-.45 1.83-1.14-.08-.3-.24-.7-.47-1-.53-1 .16-1.76 2.3-2 2.45-.2 4.97-.3 7.42-.44 1.6 1.6-2.45 2.82-2 4.35.16.6.47 1.14.93 1.68.3.3.6.7.84 1.07.38.84 2-.08 2.68.38 1.07.46 1.3 1.07 1.14 1.84-2.9 2.75-5.66 5.35-.7 8.1 1.32.7-.37 1.6-2.05 2.15-.7.38-1.46.76-2.15 1.15-3.9.53-5.9-1.08-8.72-1.76-1.15-.62-3.14-.3-4.36-.85.23-.52.38-1.06.84-1.52 1-.9 4.9-1.53 3.68-2.37-1.9-1.3-4.2.24-6.27.86-1.45.45-2.9 0-2.52-.77.38-.85 1.15-1.7 1.76-2.53 2.22-1.84 8.26-.4 9.4-3.14-1.2 2.68-9.17-.38-9.4 3.14-2.83-.54-1.68-2.53-4.43-3.06 1.08-2.6 3.83-4.74 6.28-6.88z"/><path fill="#6A6563" d="M103.12 431.57c-.3-.07-.92-.15-.84-.23.15-.3.46-.23.84.23z"/><path fill="#A09B9A" d="M86.9 409.62c.3.07.92.15.85.23-.08.3-.4.23-.85-.23z"/><path fill="#7C7A77" d="M91.34 411.53c-.15.15-.38.46-.46.46-.7 0-.53-.24.46-.47zM117.5 399.9c-.07.15-.15.38-.3.38-.3 0-.6-.07-.92-.07.08-.14.15-.37.3-.37.3 0 .62.07.92.07z"/><path fill="#74706D" d="M121.7 411.22c.1.7.1 1.46.16 2.15-2.3-.62-2.37-1.3-.15-2.15z"/><path fill="#736F6D" d="M404.6 382.7c-.53.53-1.3.98-2.44.83-.54-.08-1.15-.46-1.15-.7 0-.45.78-.6 1.62-.45.6.16 1.3.23 2 .3z"/><path fill="#615B59" d="M343.7 426.75c-4.8.08-10.08 1.15-13.37-1.53-.92-.76-2.45 0-3.67.4-.3.06-10.87-2.16-11.25-2.4-.14-.14-.07-.3-.14-.52 1.9-.15 3.44-.54 4.13-1.53.3-.46.37-.92 1.98-1 3.44-.22 3.82-.45 2.3-1.68-1.84-1.46-.08-2.76.76-4.06.23-.3 1.76-.77 2.6-.77 2.14.08 1.45.77.76 1.46-.45.45-.9 1-1 1.53-.07.22.78.53 1.23.68.23.08.77 0 1-.07.84-.4 2.14-.7 2.3-1.15.76-2.37 4.28-3.2 8.26-3.83.6-.08 1.52 0 1.9.22.3.16.38.7 0 .92-1.07.77-2.53 1.38-3.6 2.07-.84.54.23 1.6 1.6 1.6 1.77 0 3.6-.06 5.36-.06 5.66.07 7.2.45 12.78 3.3-3.44 2.05-5.82 4.65-11.86 5.34l-.7-.3-.9.15.22.46c.4.3.08.6-.7.75zM302.1 417.88c0-.7-.08-1.45-.08-2.14 1.07-.6 2.37-.84 3.9-.84 2.14.53 4.67-.08 6.9.3.75.7 1.52 1.38 2.28 2.07-.15.68-1.45.76-2.14 1.22 1.23 1.3 5.13 2.2 2.37 4.2-1.76.08-3.44-.08-4.36-.84-.76-.4-1.45-.3-2.14.07-1.45.08-2.9.16-4.36.23-2.9-.6-5.5-1.37-6.66-2.9 0-.4 0-.7-.06-1.08.68-.38 1.45-.38 2.14-.07.76-.15 1.45-.22 2.22-.22z"/><path fill="#625D5D" d="M343.7 426.75c0-.38 0-.7-.06-1.07.7-.38 1.37-.38 2.14-.15 2.98 1.76.46 3.06-2 4.44-.68 0-1.36.07-2.13.07-1.68 0-4.13.54-4.74-.3-.68-1 1.6-1.46 3.3-1.7 1.53-.3 2.75-.6 3.5-1.3z"/><path fill="#645F5D" d="M306.3 415.5c-1.45.08-2.9.16-4.35.24-.16-1.84-1.53-3.9 4.13-4.52-.08 1.23 1.37 2.14 2.3 3.14.68.92.22 1.45-2.07 1.15z"/><path fill="#5D5856" d="M306.3 415.5c.7-.38 1.38-.76 2.15-1.14 3.67-.84 3.67-.84 4.36.84-2.13.38-4.28 1.9-6.5.3zM312.96 418.5c.7-.4 1.46-.78 2.14-1.23 1 0 2.15-.08 2.37.53 0 .08-.9.38-1.45.46-1 .15-2.06.15-3.06.23z"/><path fill="#837F7E" d="M403.46 434.94c1.45 0 2.37.23 2.53.76.14.6-.7.92-1.77 1-1.7.15-3.22-.4-2.6-.92.38-.38 1.3-.6 1.83-.84z"/><path fill="#645E5C" d="M228.35 419.18c.08 1.07.08 2.14.16 3.2-.07.7-1.52.78-2.14 1.24-1.45.07-2.9.15-4.36.23-6.42.45-9.48-1.46-11.1-4.3-.9-.37-2.6.62-1.37.17.08 0 .16.07.4.15 2.6.46 2.9 1.68 2.13 2.6-1.76 2.14-4.97 3.14-9.5 2.22-.52-.1-.9-.32-1.13-.55l-.7.23-.3.38c0 .4 0 .7 0 1.08-.76.53-.92 1.14-1.9 1.6-1.3.54-2.92.84-4.45 1.15-.84.14-1.6.06-2.22-.24-.07-.7-.07-1.45-.15-2.14-1.83 0-3.66.15-2.5-1.38.98-1.3-.1-2.06-2.16-2.06-3.75.07-6.2 1.22-6.04 3.06.08.84.84 1.68.84 2.6 0 .53-1.53 1.07-2.14.76-2.45-1.45-4.9-2.45-9.1-1.22-.46.15-2-.38-2.3-.77-1.76-2.28-3.13-4.5-7.5-6.03-1.22-.38 1.15-.92 2.45-1.15.08-.7 5.05 1.07 2.3-1.15-2.83-2.2-2-4.74-.16-7.1 2.14-2.76 6.88-1.4 10.93-1.62-10.32-2.2-24.02-1.53-27.77-8.4-.53-.4-1.14-.7-1.68-1.08-4.36-1.53-2.6-3.6-1.38-5.66.23-.45.62-.9 1.3-1.22 1.53-.23 3.3-1.14 4.2.16.7 1 1.16 2.22 3.53 2.14 3.9-.15 4.06 1.45 5.5 2.52 1.3-.23 2.76-.3 4-.7 3.2-.83 4.42-.14 4.73 1.32 0 .22-.08.38-.08.6-.22.54-.84 1-1.6 1.46-.3.23-.7.46-1.07.6.08 0-.37-.06-.37-.06s.53.15.6.15c.47-.3.85-.54 1.3-.84 1.23-.6 2.6-1.07 4.14-1.38 2.83-.54 5.2.46 7.88.38.92 0 1.83 0 2.75.08 3.75-.14-.6 3 3.98 2.53.7 0 1.45-.07 2.14-.07 3.52 1.83 1.38 5.5 7.42 6.5.23 0 .23.3.7.15-.78-.6.45.16-.24-.52 8.1-3.75 10.25 1.37 15.07 2.3 4.13.76-.53 2.13-2.75 3.5 11.63-4.04 13.92-3.6 14.6 2.92.47 1.6 1.6 2.44 5.13 1.68z"/><path fill="#5F5A58" d="M147.03 394.85c.92.23 2 .84 1.3 1.15-3.67 1.84-1.76 2.98 1.07 4.13 1.92 1.38 3.98 2.75 5.6 4.28 2.2 2.08 5.27 3 10.32 2.62 5.5-.4 9.94 1 14.3 2.37 1.76.52 1.6 1.44 0 2.13-2.3 1-5.66 1.3-7.57.54-.84-.4-.54-1.6-2.45-1.23-2 .46-3.52 1.3-3.06 2.6.08.15.15.3.3.54.7.84.08 1.76-.22 2.6-.62 1.76-.46 1.76 3.67.76.6-.15 1.44-.38 1.9-.3 1.15.15 1.23.76.84 1.3-2.06 2.68-3.75 2.98-9.8 1.76-.3-.92-.83-1.84-2.97-1.84-2.68-.07-5.43 0-8.34 0 .7-.53 1-1 1.45-1.07 5.36-.54 6.28-2.7 7.04-4.75.54-1.45-1.68-1.76-4.05-1.76-2.3.22-4.52.22-6.5-.32-.92-.38-1.46-.92-1.3-1.6-.54-.4 1.52-.92-.16-1.23l-.83.3c-2.45.16-4.44-.45-6.58-.76.45-.85 1.14-1.54-.62-2.38-5.05-2.3-5.13-3.2-1.53-5.8 1.22-.93 2.52-1.85 3.82-2.77 1.15-.76 2.45-1.3 4.36-1.3z"/><path fill="#5F5957" d="M202.65 424.76c3.3-.22 6.12-1 7.95-2.52.3-.23.16-.7-.07-1-.23-.38-.84-.3-1.6 0-.85.3-1.85.7-2.7.7-.83 0-1.75-.47-2.28-.85-.7-.54.23-1.08 1.15-1.4 2.52-.9 5.35-.9 8.1-.67.54.07 1.46.46 1.38.6-1.37 2.6 2.22 2.7 5.66 2.92.77.07 1.23.76 1.84 1.14 5.2 1.45 11.25 1.3 17.06 1.68 1.84.15 2-.77 2.68-1.38 2.14-2.14 2.22-2.07 5.73-.6.46.22.77.52 1.46.9-4.35 1.15-5.73 2.76-2.75 4.75-1.37.07-2.9.07-4.2.38-2.6.6-5.05 1.45-6.5-.53-.08-.08-1.92.15-2.84.38-3.12.6-3.5-.46-3.9-1.53-3.66-.23-2.97 1.68-4.88 2.45-3.75 1.53-9.87 1.37-11.4 4.28-3.06.84-6.2 1.07-9.18.23-.7-.22-1.07-.9-1-1.3.08-.45.77-1 1.53-1.45.38-.22 1.38-.22 2-.15 2.9.23 4.96.3 3.43-1.76-.23-.3 3.37-.07 4.52-1.07-1.3-.76-3.14-.3-4.75-.3-1.6 0-2.9-.3-2.6-1.15.7-1.7-2.83-1.76-3.82-2.76z"/><path fill="#6F6967" d="M149.7 407.7c.1.7.1 1.46.16 2.15.16.6.46 1.3.54 1.9-.08.93.3 1.77 1.83 2.3-1.07 1.3-2.52 2.15-5.5 1.6-.92-.14-2-.07-3.06-.07-5.13.23-9.72-.46-14.3-1.3-3.15-.6-3.76-1.83-2.53-3.75 3.36 3.06 8.95.62 13.23 1.23 2.53-1.3 4.97-2.6 7.5-3.9.76-.54 1.45-.62 2.14-.16z"/><path fill="#655F5E" d="M147.8 411.07c.7-.38 1.37-.77 2.06-1.22 2.37-.08 4.98-.46 6.58.76 0 .4 0 .7 0 1.08-.7.4-1.53.77-2.14 1.15-.7 0-1.45.08-2.14.08-2.14-.15-2.68-1.3-4.36-1.83z"/><path fill="#5F5957" d="M191.94 428.5c.7 0 1.45-.06 2.14-.06 1.15-.7 3.2-.54 4.28-1.3.7-.4 1.38-.77 2.15-1.15.3.6 1.23 1.3.92 1.9-.46.84-2.2 1.3-4.05 1.45-2.14.08-4.13.08-5.43-.84z"/><path fill="#5F5A58" d="M147.8 411.07c2.83-.08 4.28.54 4.36 1.9 0 .4 0 .78 0 1.08-4.06-.38-4.06-.38-4.36-2.98zM154.38 412.9c.7-.38 1.37-.76 2.14-1.14-.77.38-1.46.76-2.14 1.15z"/><path fill="#5F5957" d="M200.43 424.84c0-.38-.08-.7-.08-1.07.77.3 1.46.7 2.22 1-.7 0-1.38 0-2.14.07z"/><path fill="#5E5957" d="M267.98 431.42c.6-.84 1.53-1.68.46-2.6-1-.84-1.76-1.3-4.06-.54-1.9.6-4.74-.38-3.67-1.22 2.76-2 3-3.98 1.77-6.12-.6-1.15 1.68-1.46 2.98-2 2.45-1.06 6.74-1.44 9.26-1 .32.1.7 0 1.08.1 7.73 1.75 7.96 2.52 1.53 6.1 1.7 1.24 3.76-.37 5.52 0-.84 1.08-2.14 1.92-4.36 2.23-4.2.6-1.68 1.23-.3 1.84.22.08.38.3.6.4-2.98.22-2.9 2.6-6.42 2.44-1.45.23-2.9.3-4.36.38z"/><path fill="#5D5856" d="M297.8 419.18c2.85.7 6.52.84 6.67 2.9.3.7.54 1.38.92 2 .37.53.3 1.07-.7 1.45-1 .38-1.84.15-2.52-.3-2.15-1.3-4.36-2.53-6.5-3.83.07-.84.38-1.7 2.13-2.22zM287.03 421.86c0-.54-.08-1.07 0-1.53.23-1.6 1.45-2.6 2.68-2.3 1.92.54 1.38 1.46.77 2.3-.3.53-.84 1-1.22 1.45-.77 0-1.46 0-2.22.08zM308.75 421.93c.7-.76 1.38-.84 2.15-.07-.7 0-1.38 0-2.15.07z"/><path fill="#595352" d="M257.35 435.17c2.52-.77 5.04-1.46 6.88-2.76.77-.52 2.45-.67 3.75-.98.77.7 1.53 1.38 2.22 2.06-2.14 1.15-4.2 2.38-6.35 3.52-1.45.08-2.9.16-4.28.23-.77-.7-1.46-1.37-2.22-2.06z"/><path fill="#585351" d="M272.34 431.2c.92-1.62 2.68-2.76 6.43-2.46.3.3.6.6.9.92.93.77 1.24 1.6-.22 2.37-1.6.84-3.3.46-4.74.08-.98-.15-1.6-.6-2.36-.9z"/><path fill="#5F5957" d="M228.35 419.18c-2.3.92-3.82 3.06-7.8 1.6-.77-.3-1.9-.68-.46-1.06 3.05-.7 3.28-1.3.6-2.15-.76-.23-2.44-.6-1.07-1 6.05-1.68-.07-2.36-.53-3.5-.23-.47-1.6-.62-2.6-.24-.46.15-.7.6-.7.92.08.76.16 1.45-2.13 1.3-2.07-.15-4.13-.3-6.2-.46-1.68-.16-4.05-.16-3.44-1.3.46-.85 2.37-.1 3.67-.1.7 0 1.45-.06 2.07-.22.6-.15 1.14-.46 1.45-.76.38-.38-.08-.84-.77-.77-4.97.46-6.04-1.76-8.64-2.9-.6-.3-2.13-.4-2.82-.16s-.84.9-1.23 1.37c-3.6 0-6.8-.6-10.32-1.3.76-2.07 1.9-3.98 1.3-5.9.23-1.14.9-2.13 3.75-2.13 1.07 0 2.06.15 3.13.15 5.14 0 5.14 0 6.2 2.5.08.17.08.4.16.55.3.53.6 1.07 2 .92.6-.08 1.44-.3 1.67-.54 1.92-2.14 4.82-3.98 7.73-5.8 1.84-1.24 1.76-1.24 5.43-.32-1.16.47-.93-.45-.54.24.23.3.84.15.53-.23 2.06-.3 4.12-.52 6.2-.83 3.5-.54 1.75-1.07.22-1.6 3.13-2.68 3.67-2.68 8.64-.4 1.07.93 2 1.85 3.14 2.7.54.37 2.14.83 2.45.68 6.04-2.15 6.8.68 9.1 2.06-4.36 2.38-5.66 2.7-12.1 3.68-3.2.54-5.95 2.22-9.62 1-1.15-.38-2.45-.77-3.75 0-.84.46-.92 1-.3 1.45.9.77 1.6 1.6 3.9 1.3 1.37-.15 2.67-.6 4.05-.76 1.53-.16 2.75.15 3.6.76-.24 1.9 2.82 2.6 5.04 3.52-1.83 1.3-4.67 1.76-7.04 2.53-5.13 1.83-5.13 1.83-3.98 5.2z"/><path fill="#514C4B" d="M233.78 395.08c-2.9-.38-5.8-1.76-8.64.38-1.3-.22-2.98-.22-3.83-.68-2.66-1.38-5.5-1.92-9.47-1.07-1.53.3-3.52.08-5.2 0-.54 0-1.23-.38-1.38-.68-.15-.23.3-.84.6-.84 5.82-.46 8.12-2.68 10.26-5.05 4.37-.23 5.3-2.38 8.04-3.68-3.67-.15-9.4 1.3-10.25-.9-1.08-2.77 1.45-5.75 6.04-7.9 2.83-1.3 6.27-2.67 10.7-2.3.7 0 1.46-.07 2.15-.07 2.36-.22 4.66-.45 6.4-1.37.7-.3 1.47-.38 2.16-.07 0 1.22.15 2.45-2.22 3.52-1.46.7-1.84 1.9-2.76 2.83 3 1.15.85 3.06 2.22 4.36.3.23 1.38.6 1.7.54 2.13-.77 3.58-1 4.42.6.4.77 2.38.77 3.52.16 2-1.07 5.43-1.45 5.82-3.2 0-.1 1.22-.32 1.6-.24.54.15 1.07.54 1 .84-.54 2.68-2.3 3.75-6.9 4.3-2.05.2-4.35 0-6.26.75-.23.07-.46.3-.54.45-.07.15.08.38.23.38.68.08 1.37.23 2.06.16 5.35-.78 10.02.67 15.14.75.46 0 .85.84 1.23 1.3-2.37 1-1.68 1.9.23 2.6s4.36 1.15 4.36 2.6c-5.2-.23-10.48-.15-15.23-1.37-1.54-.4-3.07-.54-4.83.3-1.83.84-4.05-.08-6.12.15-1 1.53-3.13 2.3-6.27 2.45z"/><path fill="#4E4849" d="M230.57 372.5c-1.15.47-2.52.86-3.44 1.4-2.6 1.45-9.03 1.06-8.57 3.66.38 2.07-4.36 3.06-3.14 4.98 4.52 1 8.27-.3 12.1-1.3 1-.23 2.06-.4 2.44.23.15.3-.15.76-.54 1-1.14.68-2.45 1.37-3.82 1.98-1.15.46-2 1-2.53 1.68-2.3 2.83-2.37 2.83-7.03 1.23 0-.7-.08-1.46-.08-2.15-.77-.3-1.68-.44-2.68-.44l-.76-.23-.23.46-.7.37c-.15.15-.23.38-.46.53-2.52 1.07-2.68 4.13-7.34 3.06-3.68-.84-.16-2.83.15-4.36.3-1.45 0-1.76-3.37-1.9-1.07-.1-2.14 0-3.2 0-2.15-.1-3.38-.77-3-1.77.54-1.3.54-2.52.3-3.98-2.9 0-5.88 0-8.94.08-.53 0-1.37.38-1.6.6s.15.7.53.93c.46.23 1.23.3 1.92.38 1.97.3 4.65.46 3.66 1.9-.77 1.1-3.06.55-4.75.63-1.75 0-3.28.9-5.26.53-1.92-.92-1.15-2.3-2.15-3.44-.62-.76 0-1.38 1.14-2 1.3-.68 2.52-1.44 4.05-1.9 4.05-1.23 6.57-2.76 6.42-5.2-.07-1.07 2.83-1.76 4.97-1.53 1 .15 2.14.3 2.75.6 2.6 1.3 5.9.85 9.1.77.6-.46 1.53-.68 2.14-1.14.68 0 1.45-.08 2.14-.08 1.07.7 2.9.6 4.36.84.76.3 1.45.3 2.14-.08.7-.3 1.45-.38 2.14-.07 0 .38.08.7.08 1.07.76.3 1.45.6 2.22 1 1.45-.08 2.9-.16 4.36-.23 2.14.23 3.6.92 4.43 1.9z"/><path fill="#5F5957" d="M186.43 402.73c-2.83.54 1.53 2.9-2.45 2.68-2.98-.14-1.76-1.9-1.3-3.13.46-1.3-1-1.45-2.83-1.45-.84.7-2.14 1.15-3.44.6-1.6-.68-2.97-1.37-5.27-1.3-2.22.47-2.83.1-2.22-.98 2.92-.46 5.75-1 8.66-1.46 2.75.77 6.35.6 8.72 1.76.07 1.15.07 2.22.15 3.3z"/><path fill="#5B5755" d="M147.03 394.85c-.92.92-2.52 1.15-4.28 1.3-.77-.3-1.46-.68-2.22-1-.7.4-1.45.4-2.14.1 0-.4 0-.7-.1-1.1-.75-.3-1.37-.67-2.2-.98-.62-1.6-1.54-3.2 2.44-4.3.77-.2 1.07-.83 1.6-1.3 3.3 1 2 2.77 2.38 4.22-1.53 2.36 3.52 1 4.44 1.98 0 .3.07.7.07 1.07z"/><path fill="#5F5A58" d="M146.96 393.78c-.7 0-1.3.08-2 .08-3.36 0-3.36 0-2.44-2.07 2.83-.08 4.28.53 4.44 1.98z"/><path fill="#645E5C" d="M186.28 399.52c-3.45 0-6.5-.46-8.72-1.76 3.13-.3 5.96.08 8.72.7.46.22.6.45.46.68-.23.23-.3.38-.46.38z"/><path fill="#4E4849" d="M197.3 385.3c-.85.6-1.84.68-2.84.6-1.07-.07-1.83-.46-1.53-1 .3-.53 1.53-.76 2.45-.53.84.23 1.38.6 1.9.92z"/><path fill="#534E4D" d="M215.2 368.92c-3.6.84-3.6.84-4.37-.84 3.68-.92 3.68-.92 4.36.84z"/><path fill="#5B5755" d="M159.04 386.3c.08-.17.16-.4.3-.4.32 0 .62.08.93.08-.08.15-.16.38-.23.38-.38 0-.7-.07-1-.07z"/><path fill="#514C4B" d="M211.68 385.3c0-.4 0-.7-.08-1.08 1.76-.08 3.44.08 4.36.92-1.45 0-2.83.07-4.28.15z"/><path fill="#534E4D" d="M208.7 368.15c-.7.4-1.46.77-2.15 1.15.76-.38 1.45-.76 2.14-1.15zM219.56 368.7l-1.08.07-1.07.07c.7-.84 1.4-.84 2.16-.15zM217.4 368.77c-.67.76-1.36.84-2.13.07.7 0 1.38 0 2.14-.07zM221.85 370.75c-.77-.3-1.45-.68-2.22-1 .77.32 1.46.7 2.22 1z"/><path fill="#5B5755" d="M150.78 381.7c-.15.15-.38.45-.46.45-.76-.07-.6-.23.46-.46zM166.23 388.5c-.3-.07-.9-.15-.84-.23.15-.3.45-.23.83.23z"/><path fill="#5F5957" d="M186.28 399.52c0-.38 0-.7-.08-1.07 1.53.23 1.53.6.08 1.07z"/><path fill="#514C4B" d="M270.27 386.9c-2.14.07-4.36.23-6.5.3 3.22-1.45 3.22-1.45 6.5-.3zM271.96 375.96c-.7.15-1.3.3-2 .46-.83.22-1.6.15-1.67-.3 0-.24.6-.7 1.06-.85 1.22-.15 2.06.23 2.6.7zM273.64 378.7c.15-.14.38-.45.54-.37.6.08 1.3.08 1.76.3.9.4.76.54-.46.4-.7-.1-1.23-.17-1.84-.32z"/><path fill="#4E4849" d="M239.22 370.98c-2.84 2.38-3.14 2.38-6.43 1.38.07-1.22.9-1.84 3.6-1.45.83.16 1.82.08 2.8.08zM241.36 370.9c-.7 0-1.46.08-2.15.08.7-.76 1.4-.76 2.16-.07z"/><path fill="#5F5A58" d="M130.2 406.48c3.98-.6 6.2.77 8.72 1.76-4.36 1.3-6.34.92-8.72-1.76z"/><path fill="#6E6A68" d="M125.84 405.56c1.76-.07 3.37.08 4.36.84-1.83.16-3.44 0-4.36-.84z"/><path fill="#5F5A58" d="M138.92 408.24c.7-.38 1.38-.77 2.15-1.15-.7.38-1.38.76-2.15 1.14z"/><path fill="#5D5856" d="M245.26 408.62c5.35-3.3 7.88-3.13 10.86.54.77.46 1.46.7 2.14-.08.08-1.07-.46-2.22 1.6-2.98 1.4-.54 3.83-1.38 4.37-.3 1 2.06 5.5 1.37 7.1 2.67-2.74 1.22-5.34 2.52-8.32 3.6-2.9 1.07-1.52 2.75-3.36 3.9-.38.23-1.22.46-1.84.53-1.22.16-1.45-.15-1.37-.76.07-1.84-2.22-3-4.44-4.2-1.77-.4-1-1.54-2.3-2.08-1-.76-2.68-.9-4.44-.84zM306.08 411.22c-2.9 1.23-2.15 3.14-4.13 4.52-.7-.4-1.53-.7-2-1.15-3.05-2.76-2.98-2.76-9.33-2.07-1.07.15-2.22.23-2.37-.4-.15-.67.6-1.75 1.9-1.75 3.84-.15 7.5-.46 11.26-.9 2.23-.25 3.68.75 4.68 1.74z"/><path fill="#5F5957" d="M226.44 423.62c.7-.4 1.38-.77 2.14-1.23 2.07-.7 4.06-1.54 6.27-2.15.54-.15 2 .23 2.6.54.77.37.16.9-.76 1.3-3.14 1.3-6.74 1.36-10.26 1.52z"/><path fill="#5D5856" d="M271.27 408.47c2.45-.15 4.44.38 6.5.77.77.22 1 .76.3.84-2.75.38-5.2 1.22-7.34 2.14-2-1.38 1.23-2.53.54-3.75z"/><path fill="#575251" d="M249.62 409.54c1.76.38 2.14 1.15 2.3 2.07-.85.92-2.45 1.3-4.2 1.6-.32.1-.86.1-.93 0-.32-.3-.78-.68-.55-.9 1-.92 2.22-1.84 3.37-2.76z"/><path fill="#5E5957" d="M276.17 414.5c.53.1 1.45.17 1.53.32.38.7.15 1.38-1.38 1.6-.46.08-1.53-.07-1.6-.3-.54-.7.14-1.22 1.44-1.6z"/><path fill="#595352" d="M256.2 428.97c-.23.23-1 .38-1.53.08-.6-.4-1.3-.84-1.3-1.3 0-.38 1-.54 1.68-.23.84.23 1.68.6 1.15 1.45z"/><path fill="#5F5957" d="M236.54 407.93c.76.3 1.53.62 2.22 1-.7-.3-1.46-.6-2.22-1z"/><path fill="#5D5856" d="M299.96 417.95c-.7 0-1.46.08-2.14.08.6-.7 1.37-.76 2.14-.07z"/><path fill="#645F5D" d="M258.26 409.08c1 .15 2.07.15 2.9.46.4.08.62.7.32.92-.85.76-2.45.84-3.75.6-1.6-.3-3.6-.6-1.6-1.83.76-.07 1.45-.07 2.13-.15z"/><path fill="#5D5856" d="M311.5 387.13c0-.4-.07-.7-.07-1.08.84.08 1.23.4.84.7-.07.15-.46.22-.76.38z"/><path fill="#6E6A68" d="M123.32 399.2c-.08-1.2-.15-2.5-.08-3.74 0-.3.6-.76 1-.84 1.14-.15 2 .23 2.14.77.15.75.3 1.44 2.37 1.3 1.68-.17 2.45-.7 2.45-1.54 0-.46-.46-1.23 1.07-1.23.6 0 1.38.7 1.53 1.15.23.7.23 1.45.08 2.14-.3 1.46-1.7 2-5.2 1.92-1.77.07-3.53.07-5.36.07z"/><path fill="#575251" d="M136.1 393.17c.76.3 1.45.6 2.2 1-.75-.3-1.44-.62-2.2-1z"/><path fill="#5F5A58" d="M138.4 395.24c.68 0 1.44-.08 2.13-.08-.7.76-1.38.84-2.14.07z"/><path fill="#585351" d="M345.78 425.6c-.7 0-1.45.08-2.14.16-2.3-.7-2.07-1.6-.15-2.45.67-.3 1.9-.45 2.74-.37 1.15.15 1.07.76.76 1.3-.38.38-.76.84-1.22 1.38z"/><path fill="#5D5856" d="M302.1 417.88c.3.08.92.15.84.23-.15.4-.46.3-.84-.22z"/><path fill="#595352" d="M188.57 420.02c-.15.15-.15.38-.38.46-1.46.77-3.3.77-4.98.6-.4 0-.7-.45-.84-.75-.08-.08.3-.4.53-.46 1.77-.16 3.45-.23 5.2-.3.17.07.32.37.47.45z"/><path fill="#5F5957" d="M197.6 409.77c1.68.08 3.75 0 3.37 1.23-.16.6-1.53.84-2.53.76-2.83-.23-1.07-1.22-.84-2zM207.54 417.1c-.68 0-1.37 0-2.06-.06-1.38-.16-.46.68-1 0-.07-.16.77-.6 1.3-.77.92-.23 2-.3 3-.23.45 0 .83.46 1.2.7-.52.14-.98.37-1.52.45-.23.07-.6 0-.92-.1zM197.06 422.62c.54-.15 1.38-.46 1.6-.38.7.3 1.16.7 1.62 1.07.53.47.22.62-.85.47-1.3-.15-2.52-.3-2.37-1.15z"/><path fill="#575251" d="M164.7 401.58c-.68 0-1.45 0-2.14-.07-.9-.07-1.14-.38-.68-.83.15-.16.45-.3.76-.4.77-.2 1.45-.14 1.76.24.15.4.15.78.3 1.08zM168.9 399.2c.78.32 1.47.7 2.23 1-.92.93-2.52 1.16-4.28 1.3 0-.9.3-1.75 2.06-2.3zM166.85 401.5c-.08.54.07 1.38-1 1.38-1.14.08-1-.76-1.14-1.3.7 0 1.46-.07 2.15-.07z"/><path fill="#595352" d="M198.36 427.14c-.9.9-2.52 1.14-4.28 1.3.92-1 2.52-1.23 4.28-1.3z"/><path fill="#575251" d="M160.2 398.52c-.16.16-.4.46-.47.46-.76 0-.53-.23.46-.46z"/><path fill="#5F5957" d="M204.4 417.04l-.45.53-.38-.23zM191.86 426.3c.15-.16.38-.47.46-.47.7.08.54.23-.46.46z"/><path fill="#645E5C" d="M149.4 400.13c0 .54.08 1-.07 1.53-.08.3-.6.84-.7.84-1.3-.15-1.3-.7-.98-1.14.38-.46 1.14-.77 1.75-1.23z"/><path fill="#655F5E" d="M149.7 407.7c-.68 0-1.37.08-2.13.08.08-.53-.08-1.38 1.07-1.38s1 .85 1.07 1.3z"/><path fill="#595352" d="M228.8 427.82c.4-.3.78-.6 1.3-.76.78-.3 1.4-.15 1.47.3 0 .08-.46.3-.77.3-.7.1-1.38.1-2 .16z"/><path fill="#575251" d="M218.7 398c.4.3.7.6 1.08.83.7.54 2.15.92 1.76 1.68-.07.17-1.37.32-1.76.24-1.6-.38-2.9-.92-2.37-2 .17-.3.85-.52 1.3-.75zM240.2 392.63c-.53-.15-1.14-.3-1.52-.6-.54-.4-.23-.7.7-.77.14 0 .52.23.6.38.08.3.15.7.23 1z"/><path fill="#514C4B" d="M211.6 384.22c-.7 0-1.46 0-2.14-.08-.92-.07-1.15-.38-.7-.84.16-.15.47-.3.77-.38.77-.23 1.46-.15 1.76.23.15.38.22.7.3 1.07zM218.94 384.68c.3 0 .77.07.77.07 0 .16-.14.3-.22.46-.3 0-.77-.06-.77-.06 0-.16.17-.3.24-.46z"/><path fill="#645E5C" d="M179.85 400.9c-.3-.08-.92-.16-.84-.23.1-.4.47-.3.85.23z"/></svg>